<?xml version="1.0" standalone="no"?>
<!DOCTYPE svg PUBLIC "-//W3C//DTD SVG 20010904//EN"
 "http://www.w3.org/TR/2001/REC-SVG-20010904/DTD/svg10.dtd">
<svg version="1.0" xmlns="http://www.w3.org/2000/svg"
 width="687.000000pt" height="1031.000000pt" viewBox="0 0 687.000000 1031.000000"
 preserveAspectRatio="xMidYMid meet">

<g transform="translate(0.000000,1031.000000) scale(0.100000,-0.100000)"
fill="#000000" stroke="none">
<path d="M0 7610 c0 -2654 0 -2700 19 -2700 23 0 69 56 100 122 24 51 26 65
16 120 -7 34 -3 43 51 113 33 42 76 99 97 126 21 27 53 64 71 83 19 18 37 44
41 57 4 13 17 38 30 54 12 17 34 53 48 81 14 28 37 58 51 68 14 9 34 33 45 54
10 20 28 46 40 56 12 11 21 23 21 29 0 5 27 41 60 81 32 39 70 83 82 99 26 31
123 91 136 83 4 -3 20 8 35 24 29 30 102 70 130 70 9 0 17 4 17 9 0 5 28 23
63 41 81 41 112 59 168 97 43 30 85 45 162 60 16 3 40 20 55 40 26 33 91 73
119 73 8 0 26 9 41 19 27 20 119 52 242 85 36 10 97 29 135 42 39 13 80 24 92
24 12 0 36 8 55 17 18 9 41 20 50 25 10 4 50 12 90 18 40 6 84 15 98 21 13 6
56 12 95 15 38 2 86 7 105 10 19 3 95 7 169 10 74 2 138 7 142 11 4 5 19 33
35 63 15 30 35 64 44 75 9 11 23 36 30 55 35 89 54 115 88 118 23 2 32 -1 32
-11 0 -18 -26 -41 -38 -33 -4 3 -7 -8 -4 -23 2 -16 -1 -32 -7 -35 -13 -9 -15
-63 -2 -70 8 -6 44 32 82 86 10 13 20 20 25 16 4 -5 0 -16 -9 -26 -10 -10 -17
-26 -17 -36 0 -9 -5 -26 -10 -37 -8 -13 -7 -19 0 -19 6 0 13 7 16 15 4 8 12
15 20 15 10 0 11 -6 3 -26 -12 -34 -5 -43 13 -15 19 31 31 26 24 -11 l-6 -32
26 25 27 24 -7 -34 c-6 -33 -5 -33 12 -18 27 25 34 21 28 -15 -6 -33 -6 -33
10 -10 22 29 38 28 30 -3 -7 -27 8 -35 18 -10 11 30 28 16 21 -17 l-6 -33 20
23 c27 30 34 28 26 -10 l-7 -33 21 19 c27 24 35 17 21 -20 l-11 -29 25 24 c31
29 40 24 26 -14 -14 -37 -6 -43 15 -11 21 32 39 34 29 4 -4 -13 -9 -30 -11
-38 -3 -8 6 -3 19 13 31 35 41 25 23 -22 l-15 -36 25 28 c22 24 45 36 45 22 0
-6 -30 -67 -36 -74 -5 -5 -82 30 -260 121 -95 49 -179 88 -189 88 -22 0 -71
-52 -97 -104 -22 -43 -121 -173 -148 -193 -8 -6 -31 -14 -50 -18 -72 -13 -197
-57 -240 -85 -25 -16 -58 -37 -75 -46 -16 -9 -66 -49 -111 -88 -44 -39 -116
-98 -159 -131 -207 -159 -259 -208 -294 -279 l-23 -48 31 -26 c43 -36 50 -86
23 -149 -11 -27 -52 -104 -91 -172 -84 -148 -114 -221 -136 -327 -9 -43 -20
-83 -26 -89 -5 -5 -9 -19 -9 -32 0 -16 -4 -21 -15 -17 -18 7 -21 -26 -4 -43
14 -14 3 -47 -12 -37 -7 4 -10 1 -7 -7 3 -8 1 -22 -4 -32 -5 -11 -5 -17 2 -17
5 0 10 -7 10 -15 0 -12 -7 -14 -27 -9 -16 4 -32 11 -37 15 -6 5 -19 9 -29 9
-10 0 -31 7 -45 15 -15 7 -53 21 -84 30 -47 12 -61 13 -78 3 -15 -10 -27 -10
-49 -1 -16 6 -40 8 -54 6 -18 -4 -40 5 -71 26 -24 17 -51 31 -58 31 -8 0 -33
9 -56 20 -22 11 -48 20 -57 20 -28 0 -16 -17 26 -35 22 -10 45 -27 50 -36 5
-10 16 -16 23 -13 14 5 160 -86 151 -94 -2 -2 -26 3 -52 13 -72 25 -286 32
-390 12 -92 -18 -127 -38 -143 -81 -14 -40 -13 -46 8 -46 21 0 51 29 70 68 7
15 10 19 8 10 -3 -9 2 -19 10 -22 19 -7 18 -26 -1 -26 -8 0 -15 -4 -15 -10 0
-5 13 -10 29 -10 20 0 30 6 34 20 3 11 13 20 22 20 9 0 13 4 10 10 -4 6 10 7
39 4 30 -4 51 -2 60 5 10 9 20 10 32 3 12 -7 23 -6 35 1 17 11 54 3 46 -10 -3
-5 19 -8 49 -8 34 0 55 -4 58 -12 8 -19 23 -16 29 7 6 23 30 35 53 26 13 -5
14 -9 4 -21 -6 -7 -19 -11 -27 -8 -12 5 -15 2 -10 -10 3 -9 2 -17 -4 -17 -6 0
-9 -6 -6 -12 2 -7 9 -13 14 -13 23 0 25 -15 4 -41 -13 -17 -18 -31 -12 -38 5
-6 12 -26 16 -44 4 -18 13 -32 21 -32 21 0 17 -17 -6 -23 -13 -3 -20 -14 -20
-29 0 -13 -5 -29 -12 -36 -6 -6 -12 -22 -14 -35 -1 -13 -16 -45 -33 -72 -17
-27 -31 -55 -31 -62 0 -7 -4 -13 -10 -13 -5 0 -10 -11 -10 -25 0 -28 -8 -30
-45 -13 -22 10 -28 9 -35 -2 -5 -8 -7 -24 -4 -35 4 -15 -3 -23 -26 -33 -16 -8
-30 -20 -30 -28 0 -8 -7 -14 -15 -14 -11 0 -15 11 -15 39 0 46 -25 64 -41 28
-8 -19 -9 -18 -5 10 4 22 1 33 -10 37 -11 4 -14 1 -11 -12 3 -9 8 -35 12 -56
4 -26 9 -35 15 -27 5 9 10 10 14 2 9 -13 -2 -33 -13 -26 -5 2 -6 -46 -3 -108
2 -61 9 -113 13 -115 5 -2 9 -9 9 -15 0 -7 9 -23 20 -37 l20 -25 0 33 c0 34
23 45 34 16 3 -8 10 -12 16 -9 5 3 10 -1 10 -9 0 -9 4 -16 8 -16 4 0 6 15 4
34 -5 39 20 71 63 82 30 7 42 -1 45 -31 4 -41 -1 -63 -20 -85 -11 -12 -17 -27
-14 -31 3 -5 0 -9 -5 -9 -6 0 -11 -5 -11 -11 0 -5 4 -7 10 -4 23 14 21 -46 -3
-96 -20 -43 -25 -48 -30 -30 -3 11 -12 21 -21 21 -20 0 -20 -1 1 -44 13 -29
14 -38 3 -51 -14 -16 -35 -21 -25 -5 3 6 -1 10 -10 10 -10 0 -15 -6 -13 -17 2
-10 10 -17 16 -15 15 3 15 -1 -2 -43 -16 -37 -49 -48 -60 -19 -9 24 -7 29 6
16 7 -7 16 -12 20 -12 10 0 -17 56 -31 64 -12 8 -41 -3 -41 -15 0 -4 7 -6 15
-3 8 4 15 2 15 -4 0 -6 -4 -12 -10 -14 -10 -3 0 -27 30 -74 8 -13 10 -31 6
-50 l-8 -29 -19 25 c-10 14 -25 32 -32 40 -7 8 -22 33 -32 55 -11 22 -21 42
-22 44 -1 1 -11 -3 -22 -11 -21 -15 -21 -15 5 -37 14 -13 23 -29 20 -37 -3 -8
0 -14 6 -14 15 0 37 -31 38 -52 0 -10 7 -18 15 -18 13 0 17 -12 14 -37 -1 -5
-5 -7 -9 -6 -4 1 -6 -7 -3 -18 4 -15 0 -22 -16 -26 -16 -4 -19 -9 -11 -18 12
-15 -3 -30 -19 -21 -12 8 -41 -3 -41 -15 0 -5 7 -9 16 -9 8 0 12 -5 8 -11 -3
-6 -17 -8 -30 -5 -29 8 -30 2 -4 -26 36 -39 19 -72 -19 -37 -12 12 -25 18 -29
14 -3 -3 -2 -9 3 -13 6 -4 18 -16 28 -28 17 -21 17 -23 -14 -83 -17 -33 -38
-61 -45 -61 -8 0 -14 -7 -14 -15 0 -8 -4 -15 -10 -15 -5 0 -10 6 -10 14 0 9
-8 13 -22 9 -22 -4 -22 -3 4 21 l28 25 -37 40 c-38 43 -73 54 -73 23 0 -26
-11 -34 -27 -20 -11 9 -17 9 -24 -3 -13 -20 -11 -2 2 23 10 18 9 20 -6 14 -14
-5 -16 -4 -7 7 7 8 8 17 4 22 -4 4 8 4 26 0 32 -7 33 -6 20 14 -16 27 -34 27
-48 0 -7 -11 -25 -25 -40 -31 -26 -8 -28 -12 -17 -29 16 -26 30 -24 21 3 -6
21 -5 21 10 9 9 -8 14 -21 11 -28 -6 -17 34 -54 52 -48 7 2 10 -2 6 -11 -3 -8
1 -14 11 -14 9 0 16 -6 16 -14 0 -8 8 -13 17 -12 10 0 18 -6 18 -14 1 -24 23
-56 32 -47 4 5 -1 15 -11 23 -18 12 -18 14 -3 14 10 0 20 -7 24 -16 3 -8 12
-13 19 -10 11 4 11 0 1 -22 -6 -15 -14 -29 -17 -32 -3 -3 -6 -16 -8 -29 -3
-33 -8 -36 -29 -20 -17 13 -17 13 -1 -7 22 -25 23 -38 3 -30 -17 6 -20 -5 -5
-20 6 -6 6 -22 0 -44 -6 -19 -10 -47 -10 -62 0 -16 -4 -28 -9 -28 -4 0 -2 -23
5 -51 12 -47 12 -54 -5 -78 -31 -45 -33 -51 -17 -45 9 3 16 12 16 20 0 13 6
16 28 13 4 -1 6 -5 4 -10 -1 -5 4 -9 12 -9 8 0 17 -8 20 -17 6 -14 9 -15 15
-4 7 10 10 10 16 1 15 -24 -19 -30 -43 -8 l-23 22 -26 -26 c-14 -14 -22 -31
-19 -37 11 -18 26 -13 20 7 -5 15 -4 15 8 2 7 -9 21 -14 30 -12 12 2 15 -2 11
-17 -3 -12 -9 -21 -14 -21 -5 0 -6 -7 -3 -15 4 -9 0 -15 -10 -15 -19 0 -21
-11 -5 -27 8 -8 3 -26 -20 -69 -20 -37 -31 -72 -31 -98 0 -23 -5 -48 -10 -56
-8 -13 -10 -12 -10 3 0 9 -7 17 -15 17 -8 0 -15 7 -15 15 0 7 -8 19 -18 24
-15 9 -15 10 4 11 12 0 26 -10 33 -22 6 -13 10 -16 7 -7 -2 9 0 21 6 27 6 6 6
12 -1 16 -16 10 -14 39 3 33 8 -3 18 5 25 19 14 31 14 34 1 34 -5 0 -10 -7
-10 -15 0 -9 -12 -20 -26 -25 -36 -14 -47 -12 -40 5 3 8 1 15 -4 15 -14 0 -21
-18 -10 -25 18 -11 11 -35 -11 -35 -18 0 -19 3 -9 15 12 14 6 35 -10 35 -5 0
-14 -9 -21 -21 -9 -17 -7 -25 10 -43 22 -23 28 -42 11 -31 -5 3 -10 1 -10 -4
0 -6 -6 -11 -14 -11 -9 0 -12 8 -8 26 3 15 -1 29 -8 34 -9 6 -9 13 -1 28 16
30 14 40 -11 44 -15 2 -23 10 -23 23 0 14 -6 19 -20 17 -30 -6 -30 -9 4 -42
17 -17 31 -37 31 -43 0 -6 -9 -1 -20 11 -27 28 -28 28 -22 -6 3 -15 1 -23 -4
-19 -5 5 -9 13 -9 19 0 6 -11 13 -24 15 -20 3 -47 27 -73 67 -5 7 -11 6 -20
-3 -10 -11 -10 -14 0 -18 6 -3 12 -11 12 -19 0 -8 5 -14 10 -14 6 0 10 -7 10
-15 0 -9 6 -12 15 -9 8 4 15 2 15 -4 0 -6 -5 -12 -11 -14 -12 -4 -1 -38 12
-38 5 0 9 9 9 21 0 11 5 17 10 14 6 -4 8 -11 4 -16 -3 -5 -2 -9 3 -8 21 4 28
-3 28 -25 0 -20 -3 -22 -18 -15 -10 6 -15 15 -11 21 4 6 -1 8 -14 4 -14 -5
-24 -1 -30 10 -5 10 -14 14 -21 9 -15 -9 -9 -30 10 -30 8 0 14 -7 15 -15 3
-52 4 -52 29 -46 19 5 23 3 19 -9 -9 -22 -45 -19 -51 5 -3 11 -8 20 -12 20
-12 0 -81 97 -81 114 0 10 4 15 9 11 13 -8 22 10 15 29 -5 13 -9 14 -20 5 -8
-7 -17 -9 -21 -6 -9 9 17 37 34 37 11 0 13 7 9 24 -6 26 8 44 19 26 4 -7 16 0
31 17 27 32 31 53 9 53 -8 0 -15 5 -15 11 0 5 -4 7 -10 4 -6 -3 -10 1 -10 10
0 9 -4 14 -9 10 -11 -6 -47 62 -38 72 4 3 13 0 22 -7 8 -7 15 -8 15 -4 0 5 -9
15 -21 22 -14 9 -17 17 -11 25 18 24 22 46 6 40 -7 -3 -14 -1 -14 4 0 11 40
50 46 46 10 -7 25 -2 20 6 -3 5 2 11 12 13 10 3 18 15 19 26 2 27 -12 28 -30
2 -8 -11 -16 -17 -19 -14 -9 9 -67 -68 -73 -97 -4 -19 -11 -26 -21 -22 -9 3
-14 -1 -14 -12 0 -9 -5 -13 -10 -10 -6 4 -8 10 -5 15 3 4 -2 13 -11 20 -8 8
-12 20 -8 29 3 9 7 25 8 35 0 11 7 21 13 23 9 3 11 -4 7 -25 -4 -18 -1 -32 5
-37 8 -5 10 1 5 19 -5 21 -3 25 10 20 12 -5 16 0 16 19 0 37 -38 43 -70 12
-14 -13 -40 -38 -58 -55 -37 -36 -39 -45 -12 -62 11 -7 20 -19 20 -26 0 -8 6
-12 12 -9 7 2 12 10 10 16 -1 6 2 11 8 11 5 0 10 7 10 16 0 8 5 12 11 9 6 -4
8 -14 5 -22 -4 -9 -1 -23 6 -31 11 -13 10 -15 -4 -9 -19 7 -22 -1 -12 -27 7
-18 34 -22 34 -5 0 19 58 80 65 68 4 -5 -5 -19 -19 -30 -42 -33 -51 -57 -29
-82 10 -11 12 -17 6 -13 -19 11 -5 -53 18 -87 17 -23 17 -27 4 -27 -9 0 -14 4
-10 9 12 21 -15 20 -34 -1 -25 -26 -28 -46 -4 -27 15 12 16 12 10 -5 -4 -10
-3 -24 3 -31 18 -22 0 -47 -29 -40 -37 9 -65 36 -49 46 10 6 7 19 -10 53 -17
35 -27 46 -45 46 -18 0 -26 8 -34 35 -11 36 -6 44 15 23 9 -9 12 -7 12 13 0
30 -15 54 -28 45 -6 -3 -32 5 -57 19 -36 19 -46 21 -41 9 4 -12 2 -15 -9 -10
-13 4 -14 2 -5 -14 5 -10 12 -35 15 -55 3 -29 1 -36 -10 -31 -13 5 -15 -82
-15 -681 l0 -687 28 26 c15 14 41 34 57 44 l30 18 -30 -33 c-16 -18 -42 -40
-58 -49 l-27 -16 0 -538 0 -538 3435 0 3435 0 0 5155 0 5155 -970 0 -970 0 0
-40 c0 -22 5 -40 10 -40 11 0 13 -42 4 -89 -7 -35 -23 -41 -31 -11 -3 11 -12
20 -19 20 -8 0 -14 4 -14 10 0 5 -13 16 -30 25 -57 30 -198 19 -207 -16 -3
-10 -9 -19 -13 -19 -13 0 -32 -111 -26 -148 18 -102 59 -135 170 -136 39 -1
79 3 89 8 10 5 17 4 17 -2 0 -6 -10 -14 -22 -18 -35 -11 -48 -30 -50 -71 l-1
-38 -7 45 -7 45 -1 -42 -2 -43 -67 -2 c-38 0 -80 0 -95 1 -16 1 -28 -1 -28 -6
0 -5 -15 -17 -34 -27 -34 -18 -55 -46 -36 -46 13 0 0 -31 -21 -52 -10 -10 -15
-26 -12 -36 2 -11 0 -23 -6 -26 -6 -4 -11 -20 -11 -37 0 -27 -2 -29 -40 -29
-29 0 -40 -4 -40 -15 0 -13 -4 -14 -21 -5 -61 33 -193 51 -202 28 -4 -10 -6
-10 -6 0 -1 6 -12 12 -26 12 -23 0 -25 3 -25 50 0 39 -4 53 -20 62 -11 7 -20
18 -20 25 0 8 -16 13 -42 14 -24 1 -35 3 -25 6 10 3 29 16 42 29 22 22 25 34
25 98 0 53 -4 77 -15 86 -22 18 -21 110 1 110 13 0 14 3 5 13 -13 16 -5 27 19
27 9 0 25 9 35 20 10 11 24 20 31 20 17 0 44 52 44 84 0 20 -8 29 -35 40 -40
17 -41 20 -20 60 29 54 23 56 -180 56 l-185 0 0 -32 c-1 -38 -17 -64 -45 -69
-14 -3 -21 -14 -23 -34 -3 -19 -19 -44 -46 -70 -26 -25 -41 -47 -38 -58 2 -9
-4 -20 -12 -23 -9 -3 -16 -12 -16 -20 0 -8 -6 -14 -14 -14 -17 0 -29 -27 -15
-36 15 -9 -9 -34 -33 -34 -10 0 -16 -4 -13 -10 3 -5 2 -10 -2 -10 -5 0 -17
-14 -27 -31 -15 -25 -16 -33 -6 -39 9 -6 -1 -15 -31 -28 -43 -20 -44 -20 -47
-2 -2 11 4 35 13 55 10 19 14 42 11 51 -4 12 3 26 24 43 25 21 33 38 41 90 14
89 17 95 109 171 16 14 30 31 30 38 0 7 16 22 35 33 19 12 35 23 35 25 0 2
-835 4 -1855 4 l-1855 0 0 -2700z m4000 2324 c0 -44 -3 -54 -12 -46 -11 8 -14
43 -9 95 1 4 6 7 11 7 6 0 10 -25 10 -56z m900 -14 c0 -5 -4 -10 -10 -10 -5 0
-10 5 -10 10 0 6 5 10 10 10 6 0 10 -4 10 -10z m-3282 -100 c-28 -23 -38 -25
-38 -6 0 8 12 23 28 34 22 17 28 18 30 6 2 -8 -7 -23 -20 -34z m1813 -97 c-21
-36 -39 -53 -55 -53 -27 0 -18 27 17 49 39 25 51 26 38 4z m486 -115 c-2 -13
-4 -3 -4 22 0 25 2 35 4 23 2 -13 2 -33 0 -45z m-536 -18 c12 0 17 -5 14 -10
-4 -6 -1 -17 5 -25 11 -13 6 -15 -34 -15 -33 0 -46 4 -46 14 0 8 5 18 10 21 6
4 8 10 5 15 -3 5 0 20 7 32 l13 23 3 -27 c2 -20 9 -28 23 -28z m856 -96 c-3
-3 -12 -4 -19 -1 -8 3 -5 6 6 6 11 1 17 -2 13 -5z m-514 -2809 c-16 -34 -36
-45 -47 -26 -8 12 43 73 55 66 4 -3 1 -21 -8 -40z m37 -26 c-13 -29 -40 -40
-40 -15 0 7 10 26 22 41 26 33 36 18 18 -26z m38 -15 c-14 -29 -38 -44 -38
-24 0 16 44 69 48 59 2 -5 -3 -20 -10 -35z m37 -33 c-8 -17 -20 -31 -25 -31
-20 0 -17 18 8 50 30 38 41 26 17 -19z m41 -15 c-15 -36 -36 -49 -36 -22 0 15
40 69 47 63 2 -3 -3 -21 -11 -41z m48 -8 c-8 -28 -23 -48 -35 -48 -14 0 -11
18 7 45 20 31 38 32 28 3z m32 -32 c-14 -34 -36 -49 -36 -26 0 13 42 71 47 66
2 -2 -3 -20 -11 -40z m48 -8 c-10 -34 -26 -50 -37 -39 -6 6 -2 19 9 35 23 32
38 33 28 4z m34 -34 c-14 -29 -38 -44 -38 -24 0 16 44 73 48 61 2 -6 -3 -22
-10 -37z m40 -20 c-14 -30 -38 -44 -38 -23 0 14 41 61 48 55 2 -3 -2 -17 -10
-32z m62 22 c0 -19 -34 -76 -45 -76 -20 0 -19 6 6 46 17 28 39 45 39 30z m228
-24 c6 -18 -15 -14 -22 4 -4 10 -1 14 6 12 6 -2 14 -10 16 -16z m-213 -51
c-15 -30 -35 -42 -35 -21 0 16 44 72 48 61 2 -5 -4 -23 -13 -40z m53 2 c-15
-36 -28 -53 -39 -53 -15 0 -10 19 13 50 27 38 41 39 26 3z m27 -38 c-24 -49
-9 -57 27 -15 23 26 27 29 18 10 -24 -48 -40 -60 -61 -47 -24 15 -24 20 3 61
29 44 35 39 13 -9z m-1155 -186 c0 -46 -24 -64 -46 -34 -17 24 -18 82 -1 88
27 10 47 -13 47 -54z m55 34 c13 -25 15 -25 13 -6 -2 12 1 23 7 25 6 2 8 -16
7 -42 -4 -47 -18 -74 -26 -49 -2 8 -7 21 -9 29 -3 8 -6 2 -6 -13 -1 -46 -21
-20 -21 27 0 37 6 56 16 56 2 0 10 -12 19 -27z m-161 -38 c6 -31 26 -51 26
-25 0 6 5 10 10 10 6 0 10 -9 10 -20 0 -13 -7 -20 -20 -20 -11 0 -23 0 -27 -1
-9 0 -33 82 -27 93 9 15 22 -1 28 -37z m311 24 c9 -13 -19 -50 -32 -44 -7 2
-13 -3 -13 -11 0 -10 6 -14 15 -10 9 3 15 0 15 -9 0 -26 40 6 47 37 3 15 10
25 15 22 5 -3 7 -12 4 -20 -4 -11 1 -13 19 -8 14 3 25 2 25 -4 0 -5 -11 -13
-24 -16 -19 -5 -26 -14 -29 -39 -4 -29 -5 -30 -12 -9 -6 17 -11 20 -20 12 -9
-8 -15 -8 -20 0 -3 5 -14 10 -23 10 -37 0 -42 13 -25 61 13 36 21 45 35 41 10
-2 21 -8 23 -13z m-356 -48 c18 -22 27 -42 22 -45 -5 -4 -12 -2 -16 4 -9 14
-26 12 -23 -3 2 -7 -1 -14 -7 -15 -11 -3 -36 84 -27 92 11 12 21 5 51 -33z
m-81 -20 c3 -10 0 -12 -12 -8 -9 4 -16 2 -16 -3 0 -6 11 -10 24 -10 13 0 29
-7 36 -16 11 -12 10 -18 -3 -31 -16 -16 -47 -12 -47 7 0 7 8 9 21 5 15 -5 19
-4 15 4 -4 6 -18 11 -32 11 -26 0 -40 20 -30 46 7 18 37 15 44 -5z m581 -15
c9 -11 9 -16 0 -21 -6 -4 -15 -2 -20 6 -6 11 -12 10 -28 -5 -27 -24 -26 -34 2
-39 20 -3 20 -4 4 -12 -13 -5 -24 -2 -35 8 -15 15 -14 19 13 47 32 33 47 37
64 16z m-354 -67 c4 -24 14 -43 23 -46 10 -4 20 -11 24 -17 11 -16 19 -2 25
43 3 23 10 44 16 48 6 4 7 -10 3 -39 -7 -46 -1 -58 36 -71 13 -5 26 6 50 43
40 60 50 58 14 -4 -14 -24 -26 -47 -26 -49 0 -3 16 -8 37 -12 28 -5 42 -2 65
15 37 28 48 20 12 -9 -18 -14 -22 -22 -13 -25 75 -24 101 -35 86 -35 -10 -1
-71 15 -135 35 -64 20 -126 38 -136 42 -12 3 -17 1 -13 -5 4 -6 29 -16 57 -23
28 -7 53 -16 56 -21 7 -13 0 -12 -84 12 -40 11 -76 18 -79 15 -4 -3 -12 -1
-19 5 -18 15 -79 28 -92 20 -15 -9 -132 -202 -132 -217 0 -18 36 -27 57 -15
10 5 29 30 43 56 24 44 24 47 7 60 -23 17 -5 30 22 15 11 -5 29 -10 40 -10 12
0 21 -4 21 -10 0 -5 -4 -10 -8 -10 -5 0 -22 -26 -38 -59 -23 -46 -35 -60 -58
-65 -52 -11 -75 -6 -108 23 l-32 28 31 49 c17 27 43 72 58 101 14 28 32 54 38
56 7 2 9 8 5 12 -12 13 -58 -13 -59 -32 0 -16 -2 -15 -8 2 -8 18 -10 16 -19
-15 l-10 -35 -1 32 c-1 24 6 37 28 52 16 12 33 21 39 21 5 0 15 7 22 15 7 8
17 12 23 8 6 -4 8 2 5 15 -7 26 0 28 17 5 7 -9 31 -22 55 -29 l42 -12 -4 39
c-5 51 8 50 17 -2z m398 24 c4 -3 -10 -18 -31 -32 -36 -24 -36 -25 -13 -31 20
-5 21 -7 9 -18 -12 -9 -19 -7 -37 12 -22 23 -22 24 -3 30 11 4 27 15 37 26 19
21 28 24 38 13z m-698 -43 c-7 -23 4 -26 24 -7 21 18 3 -12 -22 -41 -25 -27
-31 -60 -16 -78 16 -19 4 -44 -21 -44 -22 0 -28 28 -9 47 6 6 9 19 7 29 -3 17
-6 16 -29 -8 -27 -29 -44 -35 -53 -19 -12 19 7 41 34 41 33 0 55 24 65 68 3
17 11 32 16 32 6 0 7 -9 4 -20z m719 -43 c-46 -23 -49 -25 -42 -33 3 -3 24 4
46 15 25 13 43 17 47 11 3 -6 -15 -19 -41 -30 -41 -18 -49 -19 -62 -6 -8 8
-11 19 -8 25 11 16 80 50 90 44 5 -4 -9 -15 -30 -26z m-256 -95 c18 -9 29 -18
24 -21 -4 -3 -18 -23 -31 -43 -12 -21 -27 -38 -32 -38 -6 0 -7 -5 -4 -10 7
-11 -51 -119 -69 -132 -18 -13 -71 -9 -92 7 -10 8 -30 15 -43 15 -29 0 -29 1
53 135 36 59 66 113 66 120 0 14 63 -3 128 -33z m331 29 c10 -18 6 -31 -10
-31 -4 0 -9 8 -12 18 -3 14 -6 12 -17 -10 -14 -31 -41 -36 -60 -13 -14 17 -5
35 17 35 13 0 13 -3 3 -15 -10 -12 -10 -15 4 -15 9 0 16 6 16 13 0 17 20 37
37 37 7 0 17 -8 22 -19z m-200 -36 c29 -7 61 -21 70 -30 17 -18 11 -18 -80 1
-40 9 -43 -18 -10 -83 l28 -56 -34 -58 c-43 -72 -85 -84 -148 -43 -20 13 -24
14 -47 14 -7 0 -3 6 8 14 11 8 29 33 39 56 12 27 23 39 33 35 7 -3 20 -5 28
-5 9 0 3 -14 -17 -44 -33 -47 -32 -66 4 -66 16 0 30 14 50 50 l28 50 -27 46
c-25 42 -26 48 -14 84 7 21 9 44 5 51 -6 9 -3 10 11 5 10 -5 43 -14 73 -21z
m221 -24 c0 -5 -23 -14 -50 -20 -62 -13 -60 -13 -60 -2 0 6 19 14 43 19 57 13
67 14 67 3z m-896 -27 c9 -3 16 -15 16 -25 0 -15 -7 -19 -39 -19 -43 0 -55 9
-45 34 6 16 39 21 68 10z m899 -19 c0 -6 -12 -13 -29 -16 l-29 -7 33 -1 c22
-1 32 -6 32 -16 0 -13 -8 -15 -37 -10 -86 15 -94 30 -27 51 44 13 55 13 57 -1z
m-891 -51 c17 -11 6 -22 -32 -32 -43 -11 -62 0 -33 17 17 10 17 10 1 11 -10 0
-18 5 -18 11 0 11 63 5 82 -7z m895 -28 c9 -7 -12 -46 -24 -46 -13 0 -13 3 -3
15 10 12 10 15 -3 15 -8 0 -18 -6 -21 -12 -3 -9 -8 -8 -16 5 -6 9 -16 15 -22
11 -7 -4 -6 -9 3 -15 17 -10 5 -23 -14 -16 -9 3 -13 15 -10 31 5 24 8 25 57
19 28 -3 52 -6 53 -7z m-570 -96 c157 -51 262 -80 290 -80 27 0 42 -4 38 -10
-3 -5 -18 -10 -32 -10 -25 0 -25 -1 -9 -25 23 -34 5 -32 -21 3 -18 25 -93 60
-93 44 1 -9 19 -93 26 -114 3 -10 1 -18 -4 -18 -5 0 -17 33 -27 74 -16 64 -22
76 -43 81 -13 3 -26 5 -27 3 -1 -2 -10 -32 -18 -68 l-16 -65 2 74 2 74 -90 28
c-49 16 -93 29 -96 29 -4 0 -29 -18 -58 -41 -62 -49 -68 -40 -8 12 l42 37 -27
11 c-19 7 -37 7 -54 1 -38 -15 -65 -11 -31 4 l28 12 -23 12 c-59 28 24 5 249
-68z m-307 51 c0 -5 -10 -16 -22 -24 l-23 -16 28 0 c39 -1 33 -18 -10 -30 -39
-11 -57 -6 -33 9 12 8 11 10 -5 10 l-20 1 20 16 c14 11 15 14 3 10 -32 -11
-29 8 4 19 41 15 58 17 58 5z m819 -59 c11 -8 10 -15 -5 -38 -28 -43 -46 -65
-79 -97 -29 -29 -30 -29 -33 -8 -4 24 34 126 56 153 14 17 21 16 61 -10z
m-551 -26 c26 -14 56 -31 66 -39 19 -14 19 -15 -3 -22 -14 -4 -20 -12 -17 -21
7 -19 4 -18 -54 16 -28 17 -55 30 -60 30 -13 0 -13 16 0 41 13 24 11 24 68 -5z
m-238 -5 c0 -11 -61 -54 -67 -47 -3 3 0 13 8 23 12 15 12 16 -3 11 -9 -4 -19
-4 -23 0 -4 4 10 12 32 18 38 11 53 10 53 -5z m228 -74 c36 -21 38 -26 18 -53
-14 -19 -15 -19 -60 6 -25 13 -46 26 -46 27 0 1 5 13 11 27 12 26 21 26 77 -7z
m-171 -3 c4 -10 -4 -25 -22 -40 -26 -22 -30 -23 -46 -8 -17 15 -16 17 9 40 32
28 50 30 59 8z m36 -41 c6 -10 -38 -75 -46 -67 -3 3 -3 12 0 20 4 10 0 12 -11
8 -26 -10 -18 10 12 28 30 20 39 21 45 11z m51 -39 c3 -7 -2 -17 -10 -22 -9
-5 -14 -18 -12 -28 3 -16 7 -13 21 14 15 27 21 31 37 22 17 -9 18 -13 5 -42
-7 -18 -18 -34 -24 -36 -15 -5 -60 30 -61 48 0 13 -1 13 -10 0 -5 -8 -12 -11
-16 -8 -3 4 3 23 15 42 22 35 44 39 55 10z m481 16 c3 -5 0 -10 -7 -11 -7 -1
-2 -4 12 -8 33 -9 41 -51 11 -51 -12 0 -21 5 -21 11 0 6 7 9 15 5 8 -3 15 -2
15 3 0 5 -13 11 -30 13 -34 5 -36 2 -14 -23 9 -10 13 -23 9 -28 -11 -19 -33
-12 -56 20 -18 26 -19 33 -8 40 8 5 19 9 25 9 7 0 14 7 18 15 6 17 22 20 31 5z
m-79 -75 c16 -40 17 -45 6 -45 -7 0 -42 63 -42 75 0 3 5 5 11 5 5 0 17 -16 25
-35z m-251 4 c6 -6 6 -16 -2 -27 -7 -12 -8 -24 -1 -35 6 -11 5 -17 -1 -17 -6
0 -15 8 -20 18 -10 16 -10 16 -11 -1 0 -10 -4 -16 -9 -12 -5 3 -7 20 -4 39 4
25 2 33 -11 33 -8 0 -12 -5 -9 -10 3 -5 -1 -13 -8 -18 -10 -6 -11 -9 -1 -9 6
0 12 -4 12 -10 0 -10 -33 -14 -42 -5 -3 3 0 21 6 41 11 34 12 35 51 28 22 -3
44 -10 50 -15z m215 -15 c0 -13 5 -24 10 -24 6 0 10 -5 10 -11 0 -6 -7 -9 -15
-5 -8 3 -15 1 -15 -4 0 -24 -18 -7 -28 27 -8 28 -9 39 0 44 19 12 38 -2 38
-27z m1833 18 c20 -22 65 -120 67 -147 1 -11 2 -37 1 -58 -1 -30 -5 -38 -18
-35 -12 2 -20 22 -29 74 -7 45 -22 86 -39 112 -36 55 -22 98 18 54z m-1945
-20 c2 -8 -2 -10 -15 -5 -17 6 -17 5 1 -15 20 -23 16 -52 -8 -52 -7 0 -17 7
-20 16 -5 12 -1 14 17 8 l22 -6 -24 25 c-12 14 -20 31 -16 37 9 14 37 9 43 -8z
m52 7 c0 -5 -4 -7 -10 -4 -5 3 -10 2 -10 -4 0 -5 6 -12 13 -14 9 -4 8 -8 -3
-17 -13 -9 -12 -10 4 -8 10 2 21 -3 23 -9 3 -8 -5 -13 -21 -13 -14 0 -26 4
-26 9 0 5 -3 23 -6 40 -6 27 -4 31 15 31 11 0 21 -5 21 -11z m1770 -319 c0 -5
-2 -10 -4 -10 -3 0 -8 5 -11 10 -3 6 -1 10 4 10 6 0 11 -4 11 -10z m38 -87
c-2 -10 -14 -19 -26 -21 -21 -3 -22 -2 -10 17 16 25 41 28 36 4z m-542 -85
c13 -25 13 -27 -3 -21 -24 9 -42 34 -43 57 0 16 2 16 16 5 8 -7 22 -25 30 -41z
m-2921 10 c11 -5 35 -17 54 -27 31 -16 33 -19 16 -28 -17 -10 -17 -12 10 -37
15 -14 32 -26 36 -26 12 0 11 37 -1 45 -15 9 -12 25 4 25 23 0 45 -28 39 -50
-4 -16 0 -23 16 -27 25 -6 25 -2 6 -47 -14 -32 -18 -35 -35 -26 -22 12 -27 1
-8 -18 9 -9 9 -15 0 -24 -7 -7 -12 -20 -12 -29 0 -26 -19 -34 -37 -16 -11 11
-13 20 -5 33 8 14 7 24 -6 38 -16 18 -16 18 6 12 16 -5 22 -3 22 7 0 9 -6 18
-12 20 -8 3 -6 6 5 6 27 1 21 14 -30 66 -51 51 -126 95 -164 95 -24 1 -24 1
-4 16 20 15 57 12 100 -8z m-101 -37 c4 -5 -3 -7 -14 -4 -23 6 -26 13 -6 13 8
0 17 -4 20 -9z m-207 -17 c-3 -3 -12 -4 -19 -1 -8 3 -5 6 6 6 11 1 17 -2 13
-5z m523 -35 c0 -24 -23 -21 -28 4 -2 10 3 17 12 17 10 0 16 -9 16 -21z m2788
-12 c4 -21 -27 -35 -38 -17 -12 19 0 42 19 38 9 -2 17 -11 19 -21z m-3143 3
c3 -5 1 -10 -4 -10 -6 0 -11 5 -11 10 0 6 2 10 4 10 3 0 8 -4 11 -10z m4409
-42 c29 -30 62 -152 51 -188 -10 -32 -23 -23 -30 23 -4 23 -17 67 -29 97 -27
66 -23 99 8 68z m-874 -118 c0 -5 -4 -10 -10 -10 -5 0 -10 5 -10 10 0 6 5 10
10 10 6 0 10 -4 10 -10z m-33 -6 c-3 -3 -12 -4 -19 -1 -8 3 -5 6 6 6 11 1 17
-2 13 -5z m-3333 -25 c-3 -5 -10 -7 -15 -3 -5 3 -7 10 -3 15 3 5 10 7 15 3 5
-3 7 -10 3 -15z m3712 -6 c-10 -10 -19 5 -10 18 6 11 8 11 12 0 2 -7 1 -15 -2
-18z m74 -20 c0 -13 -3 -13 -15 -3 -8 7 -15 19 -15 27 0 13 3 13 15 3 8 -7 15
-19 15 -27z m-385 6 c9 -13 16 -214 8 -205 -6 6 -32 -23 -33 -36 0 -5 8 -8 18
-8 28 0 24 -70 -3 -80 -11 -4 -29 -17 -39 -29 -11 -11 -25 -21 -32 -21 -7 0
-17 -8 -23 -17 -9 -16 -11 -17 -26 -2 -21 20 -9 52 16 46 11 -3 19 -1 19 5 0
5 -9 12 -19 15 -16 4 -18 9 -10 29 7 19 5 26 -7 31 -21 8 -30 -5 -17 -25 8
-13 8 -22 -1 -34 -11 -15 -13 -15 -24 3 -7 10 -12 28 -12 39 0 11 -4 29 -10
40 -5 11 -14 29 -20 40 -14 27 -13 30 8 30 10 0 27 7 38 15 19 14 18 14 -3 15
-25 0 -31 22 -10 37 15 12 87 14 87 2 0 -5 6 -9 14 -9 22 0 29 -19 15 -36 -10
-12 -9 -18 2 -30 13 -12 17 -12 34 0 17 13 18 18 8 35 -16 26 -17 53 -2 68 6
6 10 30 7 52 -3 40 4 52 17 30z m-3415 -75 c0 -18 4 -36 10 -39 6 -4 1 -23
-12 -48 -17 -32 -23 -38 -26 -24 -4 21 -41 67 -53 67 -11 0 2 -43 23 -69 10
-13 18 -31 18 -40 0 -12 -5 -9 -20 9 -10 14 -22 21 -26 17 -4 -4 1 -16 11 -27
14 -15 15 -20 4 -20 -11 0 -11 -2 1 -10 13 -8 13 -11 -2 -27 -17 -16 -19 -16
-48 12 -30 28 -34 27 -31 -7 1 -10 -3 -18 -10 -18 -9 0 -8 -4 1 -15 13 -16 50
-16 63 0 5 6 5 -1 1 -15 -3 -14 -11 -31 -17 -38 -9 -11 -12 -10 -19 7 -7 21
-38 30 -38 11 0 -5 5 -10 10 -10 14 0 12 -37 -2 -44 -7 -3 -2 -3 12 0 l25 5
-23 -20 c-14 -12 -20 -25 -16 -32 4 -7 -4 -4 -18 7 -19 14 -25 26 -23 49 2 17
0 50 -5 73 -4 23 -3 42 1 42 5 0 9 9 9 19 0 11 5 23 10 26 6 3 8 16 5 28 -6
26 8 52 24 43 6 -4 11 -15 11 -25 0 -18 18 -41 32 -41 4 0 8 7 8 15 0 8 -4 15
-10 15 -5 0 -10 5 -10 10 0 6 7 10 15 10 19 0 19 9 0 34 -20 26 -19 40 1 32
13 -5 15 -1 11 16 -7 28 8 57 22 43 5 -6 18 -27 29 -48 24 -46 41 -31 19 16
-9 18 -13 44 -10 61 l6 29 18 -22 c11 -13 19 -38 19 -57z m70 36 c-11 -21 -12
-21 -25 -3 -19 24 -19 37 0 30 8 -4 18 -1 22 5 12 21 15 -9 3 -32z m3310 3 c0
-7 -4 -13 -10 -13 -5 0 -10 12 -10 28 0 21 2 24 10 12 5 -8 10 -21 10 -27z
m100 -5 c0 -12 12 -70 27 -131 l28 -110 -50 -44 c-28 -25 -75 -64 -105 -86
-59 -45 -102 -82 -161 -137 -21 -19 -57 -50 -81 -68 -115 -88 -134 -102 -140
-102 -4 0 -29 -20 -55 -45 -27 -24 -68 -58 -91 -75 -24 -17 -45 -37 -49 -45
-3 -8 -11 -15 -18 -15 -7 0 -15 -7 -19 -15 -3 -8 -11 -13 -18 -10 -7 3 -38
-17 -68 -44 l-55 -49 0 -69 c0 -64 -3 -74 -40 -131 -49 -75 -70 -80 -79 -16
-8 61 -8 149 1 157 3 4 12 -1 20 -11 8 -9 12 -11 8 -5 -3 7 -1 31 6 53 9 31
17 40 34 40 23 0 116 69 300 221 157 130 436 346 530 410 43 30 82 56 86 59 4
3 -6 57 -22 120 -32 128 -34 151 -17 168 15 15 28 6 28 -20z m299 -48 c27 -48
17 -70 -30 -70 -34 0 -44 13 -23 31 14 12 14 14 -1 25 -14 10 -14 15 -3 33 19
30 31 26 57 -19z m31 -121 c17 -31 11 -37 -32 -34 -24 2 -46 4 -50 4 -5 1 -8
10 -8 21 0 22 20 26 38 8 9 -9 12 -7 12 10 0 25 25 20 40 -9z m-5 -88 c3 -5 1
-12 -5 -16 -5 -3 -10 1 -10 9 0 18 6 21 15 7z m-605 -11 c0 -5 14 -25 31 -45
24 -27 30 -41 25 -61 -7 -26 -7 -26 -27 -8 -23 20 -69 111 -61 119 9 9 32 5
32 -5z m428 -72 c19 -19 14 -30 -8 -18 -11 6 -20 15 -20 20 0 14 14 12 28 -2z
m-4088 -38 c0 -5 -4 -10 -10 -10 -5 0 -10 5 -10 10 0 6 5 10 10 10 6 0 10 -4
10 -10z m210 -10 c0 -5 -4 -10 -10 -10 -5 0 -10 5 -10 10 0 6 5 10 10 10 6 0
10 -4 10 -10z m-263 -42 c-3 -8 -6 -5 -6 6 -1 11 2 17 5 13 3 -3 4 -12 1 -19z
m326 -9 c12 -8 -1 -51 -14 -44 -5 4 -14 15 -19 25 -8 16 -7 18 4 14 11 -4 13
0 10 18 -2 13 -1 16 2 8 4 -8 11 -18 17 -21z m3337 -6 c-1 -18 -29 -43 -49
-43 -25 0 -27 12 -6 30 10 9 15 9 15 1 0 -6 5 -11 11 -11 6 0 9 7 5 15 -3 9 0
15 9 15 8 0 15 -3 15 -7z m530 -4 c0 -6 -10 -19 -22 -29 -13 -10 -19 -22 -14
-27 5 -4 11 -2 13 5 5 14 63 17 63 2 0 -5 11 -12 25 -16 35 -9 43 -29 39 -98
-2 -41 -8 -63 -19 -68 -19 -12 -19 -37 1 -59 19 -21 11 -39 -17 -39 -24 0 -24
-11 1 -40 18 -21 19 -25 5 -40 -8 -9 -15 -22 -15 -28 0 -7 -9 -12 -20 -12 -25
0 -26 -17 -3 -43 17 -18 17 -20 1 -31 -22 -16 -40 -63 -28 -71 6 -4 10 -17 10
-31 0 -19 -5 -24 -24 -24 -26 0 -36 -16 -36 -60 0 -16 -6 -30 -12 -32 -8 -3
-12 -19 -10 -41 3 -29 -2 -42 -24 -62 -25 -23 -27 -28 -15 -47 14 -23 18 -22
-49 -2 -21 7 -28 -13 -11 -31 10 -11 -9 -125 -21 -125 -4 0 -8 5 -8 10 0 6 -6
10 -14 10 -11 0 -13 -10 -9 -41 l6 -41 -31 16 c-44 23 -51 20 -19 -8 31 -26
34 -36 12 -36 -9 0 -18 -7 -21 -15 -9 -22 -28 -18 -58 12 -18 18 -30 23 -37
16 -7 -7 -5 -14 5 -22 12 -10 13 -18 5 -32 -6 -13 -6 -19 0 -19 6 0 15 -9 21
-21 9 -16 8 -26 -5 -45 -8 -13 -22 -24 -31 -24 -8 0 -17 -7 -20 -15 -4 -8 -17
-15 -30 -15 -20 0 -25 -6 -30 -40 -7 -41 -20 -52 -30 -25 -4 8 -12 15 -18 15
-7 0 -22 14 -35 31 -13 17 -25 28 -28 26 -9 -10 8 -47 22 -47 7 0 15 -9 18
-20 3 -11 1 -18 -4 -14 -5 3 -9 -4 -9 -16 0 -17 4 -20 20 -15 24 8 25 2 4 -31
-11 -16 -23 -23 -34 -19 -14 4 -17 1 -14 -12 3 -11 -3 -26 -15 -37 -11 -10
-17 -24 -14 -34 5 -12 2 -14 -11 -9 -50 19 -66 19 -66 1 0 -11 -4 -26 -10 -34
-8 -12 -11 -12 -28 3 -10 9 -23 17 -28 17 -5 0 -3 -4 4 -9 12 -7 12 -12 0 -32
-7 -13 -17 -27 -21 -30 -5 -4 -14 -17 -21 -30 -7 -13 -20 -23 -29 -23 -9 1
-17 -5 -17 -12 0 -8 -16 -31 -36 -50 l-35 -36 -11 30 c-7 19 -23 34 -45 43
-18 7 -33 18 -33 23 0 6 -11 25 -24 41 -24 29 -25 29 -43 12 -17 -17 -17 -18
0 -11 10 3 17 1 17 -5 0 -6 -6 -11 -12 -11 -7 0 -5 -5 5 -11 19 -11 24 -59 5
-59 -7 0 -5 -7 5 -18 9 -10 23 -35 32 -55 l15 -38 -25 7 c-19 5 -25 2 -25 -10
0 -9 -4 -16 -10 -16 -5 0 -10 5 -10 10 0 6 -7 10 -15 10 -9 0 -15 -9 -15 -25
0 -24 -9 -30 -37 -26 -7 1 -13 -6 -13 -15 0 -16 -1 -16 -18 -1 -10 10 -21 15
-23 13 -2 -2 -4 9 -5 25 -1 23 1 26 10 14 6 -8 24 -19 40 -25 l29 -11 -27 35
c-14 19 -26 39 -26 45 0 6 -9 20 -19 30 -11 11 -25 30 -32 43 -7 13 -20 29
-31 36 -10 7 -18 21 -18 31 0 10 -9 26 -19 35 -28 25 -33 54 -10 61 16 5 17 9
6 28 -7 12 -14 24 -17 27 -13 13 -66 98 -78 125 -11 25 -11 31 1 40 8 5 12 15
10 21 -2 6 4 24 12 40 11 20 15 23 13 9 -2 -19 28 -65 44 -65 5 0 8 7 8 15 0
8 7 15 15 15 8 0 15 6 15 14 0 19 -17 29 -25 16 -12 -19 -22 -10 -21 20 1 40
22 38 47 -5 23 -39 44 -47 34 -13 -6 17 -4 20 9 15 9 -4 16 -2 16 3 0 14 -18
21 -25 10 -11 -18 -27 -11 -20 10 3 10 1 29 -5 40 -7 12 -10 24 -7 26 9 9 36
-9 42 -27 4 -10 12 -19 18 -19 14 -1 59 -85 50 -94 -11 -11 -23 -6 -23 9 0 8
-4 15 -10 15 -5 0 -10 -7 -10 -15 0 -8 5 -15 11 -15 6 0 9 -9 6 -20 -4 -15 0
-20 15 -20 12 0 19 -6 17 -17 -1 -10 -1 -29 0 -43 l1 -24 15 21 c14 20 13 25
-6 57 -20 34 -17 45 7 28 6 -4 14 -14 18 -22 3 -8 4 -5 2 8 -2 12 2 29 10 36
9 9 11 22 6 33 -6 16 -74 120 -118 180 -14 19 -14 24 1 52 16 31 32 43 22 17
-7 -17 16 -28 41 -19 14 6 15 4 4 -9 -9 -12 -10 -18 -2 -23 6 -4 9 -14 6 -22
-9 -21 4 -65 18 -60 6 2 11 17 11 32 1 16 7 31 14 33 8 3 12 -3 11 -14 -4 -37
0 -64 10 -64 6 0 10 9 10 20 0 11 5 20 10 20 6 0 10 -9 10 -20 0 -11 5 -20 10
-20 6 0 10 -5 10 -11 0 -6 -9 -8 -21 -4 -18 6 -20 4 -14 -14 4 -14 2 -21 -6
-21 -7 0 -10 -2 -7 -5 3 -3 21 2 41 10 45 19 47 19 47 -1 0 -9 9 -18 20 -21
11 -3 20 -9 20 -14 0 -21 18 -7 23 19 6 28 -12 58 -20 35 -6 -18 -23 -16 -23
2 0 8 4 15 10 15 5 0 7 7 4 15 -4 10 -13 13 -26 9 -17 -5 -19 -3 -13 15 4 12
2 21 -4 21 -6 0 -11 4 -11 9 0 5 9 7 20 4 11 -3 20 0 20 6 0 6 -9 11 -19 11
-31 0 -35 19 -12 51 17 23 19 29 6 29 -8 0 -15 -4 -15 -10 0 -5 -7 -10 -15
-10 -8 0 -15 7 -15 15 0 8 6 15 14 15 8 0 16 7 20 15 3 8 12 15 21 15 8 0 15
-7 15 -15 0 -8 6 -15 13 -15 11 0 47 -34 47 -44 0 -2 -9 -6 -20 -9 -16 -4 -20
0 -20 19 0 13 -5 24 -11 24 -5 0 -8 -4 -5 -9 3 -5 -1 -12 -9 -15 -12 -4 -6
-16 28 -51 45 -46 60 -55 51 -31 -3 8 0 17 7 22 7 4 14 3 17 -4 2 -6 10 -8 17
-6 8 3 24 -6 37 -20 13 -15 37 -41 53 -58 19 -20 24 -29 13 -25 -10 3 -18 2
-18 -3 0 -6 7 -10 15 -10 8 0 15 -8 16 -17 0 -12 5 -8 13 11 11 24 14 26 20
10 4 -10 1 -23 -7 -31 -12 -12 -9 -20 21 -50 27 -28 36 -33 43 -22 6 10 3 15
-8 18 -13 2 -13 5 -2 12 12 7 12 12 1 29 -10 17 -10 24 3 43 l16 22 -3 -25
c-2 -15 2 -24 9 -23 7 2 10 -4 7 -12 -4 -10 0 -15 11 -15 11 0 15 5 11 16 -3
8 -1 24 4 34 5 10 7 26 4 34 -8 21 -64 22 -64 1 0 -21 -13 -19 -30 5 -8 11
-20 20 -27 20 -7 0 -23 16 -35 35 -20 29 -60 63 -43 35 3 -6 -1 -7 -9 -4 -16
6 -20 17 -16 43 1 9 -4 12 -16 7 -20 -8 -64 29 -64 55 0 9 -9 19 -20 22 -11 3
-20 13 -20 23 0 9 -7 25 -16 35 -9 10 -13 23 -9 28 10 17 22 13 28 -9 3 -11
12 -20 21 -20 10 0 13 6 10 18 -4 12 1 10 16 -7 15 -18 19 -32 15 -53 -6 -27
7 -39 20 -18 12 20 26 9 23 -17 -2 -23 1 -29 21 -31 13 -2 26 -12 28 -23 4
-12 14 -19 30 -19 14 0 23 -5 21 -12 -4 -20 32 -86 49 -93 17 -6 33 10 33 34
0 8 -15 33 -34 55 -19 23 -36 53 -38 67 -2 13 -9 23 -16 22 -11 -3 -16 12 -15
45 1 6 -5 12 -12 12 -7 0 -16 7 -19 16 -6 15 -8 15 -31 0 -22 -14 -25 -15 -25
-1 0 8 -9 24 -20 35 -11 11 -19 28 -19 38 1 16 2 16 6 0 2 -10 9 -18 14 -18
13 0 11 13 -7 38 -9 13 -13 30 -10 38 3 9 -1 22 -9 30 -21 21 -19 33 5 31 11
-1 20 -7 20 -14 0 -7 4 -13 10 -13 18 0 50 -34 50 -53 0 -9 7 -20 15 -23 8 -4
15 -12 15 -20 0 -8 5 -14 10 -14 6 0 10 -7 10 -16 0 -10 6 -14 15 -10 9 3 15
0 15 -9 0 -8 -6 -15 -12 -16 -7 -1 -2 -4 12 -8 14 -4 27 -16 29 -26 2 -11 16
-36 32 -56 30 -38 37 -59 19 -59 -14 0 -13 -33 2 -48 16 -16 28 -15 28 3 0 8
4 15 9 15 13 0 22 -30 16 -51 -4 -12 -1 -19 7 -20 7 0 24 -3 38 -5 21 -4 22
-3 10 8 -9 7 -14 12 -11 11 2 -1 10 4 17 12 8 7 19 15 26 18 9 3 3 14 -17 32
-16 15 -28 32 -26 39 11 37 7 53 -11 48 -10 -2 -21 -8 -24 -13 -3 -5 -17 -9
-31 -9 -17 0 -24 4 -20 14 3 8 -3 22 -14 32 -10 9 -19 28 -19 42 0 14 -7 30
-15 36 -9 6 -17 24 -19 41 -2 16 -11 31 -20 35 -15 5 -30 25 -52 69 -4 8 0 19
9 26 11 8 13 15 6 22 -7 7 -5 16 6 27 10 9 15 25 12 36 -6 24 -3 25 17 4 20
-20 20 -38 0 -59 -15 -15 -14 -15 11 -9 24 6 27 4 22 -10 -5 -12 0 -19 17 -26
14 -5 27 -19 31 -31 4 -12 18 -34 31 -48 13 -14 24 -31 24 -38 0 -7 7 -13 15
-13 16 0 21 25 6 34 -5 3 -19 25 -31 48 -12 23 -37 60 -56 83 -19 23 -34 50
-34 59 0 10 -5 26 -10 36 -11 21 -3 73 10 65 5 -3 6 -14 3 -25 -8 -29 21 -25
37 5 7 14 17 25 22 25 13 0 9 28 -4 33 -8 3 -6 6 5 6 11 1 17 9 17 26 0 16 6
25 15 25 8 0 15 -6 15 -14 0 -8 7 -16 15 -20 18 -7 19 -5 1 30 -14 26 -11 57
3 38 3 -5 16 -17 27 -27 18 -15 26 -16 47 -6 20 9 24 16 17 29 -8 14 -4 17 20
18 32 1 42 -21 15 -32 -8 -3 -15 -12 -15 -21 0 -8 7 -15 15 -15 8 0 15 5 15
10 0 6 5 10 11 10 6 0 8 -9 4 -22 -5 -17 -4 -19 3 -9 15 22 12 82 -4 88 -8 3
-14 13 -12 22 1 9 -7 26 -20 39 -18 18 -20 26 -12 43 6 11 12 33 12 50 1 28 2
29 46 25 l44 -4 -5 39 c-4 33 -2 39 13 39 11 0 22 5 25 11 4 6 20 7 38 3 31
-6 32 -6 15 13 -17 19 -17 20 5 41 42 41 57 59 57 70 0 15 3 15 35 0 14 -6 25
-15 25 -20 0 -4 4 -8 9 -8 5 0 12 18 16 40 6 38 9 40 41 40 19 0 34 -5 34 -11z
m-3933 -40 c1 -12 10 -30 19 -40 20 -22 15 -33 -10 -23 -24 9 -40 53 -25 70
15 18 14 18 16 -7z m3098 -19 c3 -5 1 -10 -4 -10 -6 0 -11 5 -11 10 0 6 2 10
4 10 3 0 8 -4 11 -10z m66 -82 c25 -31 29 -41 19 -53 -7 -8 -18 -15 -25 -15
-13 0 -39 55 -50 104 -6 26 -4 28 10 16 9 -7 30 -30 46 -52z m39 2 c9 -16 8
-18 -5 -14 -8 4 -15 12 -15 20 0 20 7 17 20 -6z m-3234 -107 c-10 -10 -19 5
-10 18 6 11 8 11 12 0 2 -7 1 -15 -2 -18z m344 -132 c0 -31 -14 -49 -25 -31
-4 6 -15 8 -26 5 -27 -9 -24 2 9 30 35 32 42 31 42 -4z m85 -1 c6 -10 -22 -60
-34 -60 -3 0 -13 4 -21 10 -12 7 -12 12 0 34 13 26 43 35 55 16z m75 -21 c0
-6 -7 -9 -15 -5 -18 7 -20 -5 -3 -22 10 -10 10 -15 -2 -22 -18 -11 -32 -8 -38
8 -2 8 3 10 15 5 16 -6 16 -5 5 10 -8 9 -11 21 -7 27 8 13 45 13 45 -1z m3010
-32 c0 -5 -7 -4 -15 3 -8 7 -15 20 -15 29 1 13 3 13 15 -3 8 -11 15 -24 15
-29z m-2931 9 c25 -30 -24 -71 -54 -46 -19 16 -19 25 1 44 19 20 38 20 53 2z
m-144 -51 c192 -49 386 -107 381 -113 -8 -7 -556 141 -556 151 0 4 8 6 18 3 9
-3 80 -21 157 -41z m2235 36 c0 -6 -4 -13 -10 -16 -5 -3 -10 1 -10 9 0 9 5 16
10 16 6 0 10 -4 10 -9z m-2048 -23 c-8 -8 -9 -15 -1 -25 8 -9 8 -13 1 -13 -6
0 -14 4 -17 10 -7 11 14 54 23 46 3 -4 0 -12 -6 -18z m63 -17 c-8 -27 12 -36
27 -11 7 11 16 20 21 20 4 0 0 -11 -9 -25 -18 -27 -34 -31 -52 -13 -7 7 -8 17
-1 30 13 24 22 23 14 -1z m-411 -4 c10 -7 17 -22 14 -33 -4 -23 -37 -31 -50
-12 -7 9 -8 5 -3 -12 15 -57 15 -66 -4 -97 -20 -32 -42 -40 -75 -27 -30 12
-16 74 16 74 15 0 19 -5 15 -20 -7 -26 -1 -26 13 1 9 17 8 25 -6 40 -17 19
-17 21 0 54 16 29 27 38 57 44 3 0 13 -5 23 -12z m521 5 c7 -4 1 -17 -14 -32
-22 -24 -23 -24 -12 -2 7 12 9 27 6 32 -7 12 5 13 20 2z m72 -30 c-14 -3 -15
-7 -7 -17 9 -11 7 -12 -9 -8 -12 3 -21 1 -21 -6 0 -6 5 -11 12 -11 6 0 9 -3 5
-6 -3 -4 -13 -4 -22 0 -15 5 -14 9 5 36 15 20 26 27 38 22 16 -6 16 -7 -1 -10z
m-520 -34 l-5 -43 27 33 c26 31 61 43 61 22 0 -16 -78 -168 -91 -175 -20 -13
-32 11 -19 36 10 20 10 22 -1 12 -18 -18 -32 -16 -25 2 3 8 3 15 0 15 -2 0 -9
-11 -14 -25 -9 -25 -34 -33 -45 -16 -3 5 14 48 37 95 31 60 48 85 62 85 16 1
18 -4 13 -41z m172 -12 c10 -11 4 -30 -25 -88 -46 -92 -66 -106 -108 -75 -17
13 -16 17 19 88 21 41 43 77 49 81 18 12 53 9 65 -6z m109 -39 c5 -24 -67
-155 -89 -162 -29 -9 -59 4 -59 26 0 29 56 135 81 153 25 17 62 8 67 -17z m76
-7 c31 -11 34 -30 6 -37 -13 -4 -32 -30 -53 -74 -22 -47 -37 -69 -49 -69 -25
0 -23 11 13 81 17 34 28 68 25 76 -12 31 12 41 58 23z m76 -27 c-1 -5 -7 -19
-15 -33 -16 -29 -18 -40 -7 -40 5 0 16 16 25 35 15 32 47 49 47 25 0 -12 -67
-149 -82 -167 -5 -6 -16 -9 -23 -6 -12 4 -12 9 1 35 8 16 13 35 11 41 -2 7
-12 -5 -22 -25 -12 -23 -26 -38 -37 -38 -10 0 -18 2 -18 5 0 3 19 43 42 90 30
59 48 85 60 85 10 0 18 -3 18 -7z m2427 -125 c-3 -8 -6 -5 -6 6 -1 11 2 17 5
13 3 -3 4 -12 1 -19z m-3497 -108 c-6 -11 -16 -17 -22 -14 -7 5 -5 12 7 21 25
18 28 17 15 -7z m77 -121 c-19 -41 -42 -96 -52 -124 -35 -103 -59 -145 -82
-145 -20 0 -21 3 -13 25 5 13 20 41 33 62 13 21 50 89 82 150 32 62 60 111 62
109 3 -2 -11 -37 -30 -77z m2559 66 c10 -8 27 -15 37 -15 9 0 17 -3 17 -7 0
-5 3 -18 6 -30 8 -28 -8 -30 -51 -7 -21 11 -45 13 -85 9 -46 -4 -51 -3 -32 6
12 7 22 17 22 24 0 33 52 46 86 20z m-97 -76 c34 -12 38 -21 18 -41 -8 -7 -16
-19 -18 -26 -7 -20 -49 16 -49 42 0 19 7 36 15 36 1 0 16 -5 34 -11z m-2724
-16 c9 -12 10 -23 4 -36 -9 -17 -11 -17 -34 0 -27 20 -32 39 -12 46 22 9 30 7
42 -10z m2525 -38 c0 -8 -7 -15 -15 -15 -26 0 -18 20 13 29 1 1 2 -6 2 -14z
m1195 -25 c-5 -8 -11 -8 -17 -2 -6 6 -7 16 -3 22 5 8 11 8 17 2 6 -6 7 -16 3
-22z m-145 -44 c0 -2 -7 -6 -15 -10 -8 -3 -15 -1 -15 4 0 6 7 10 15 10 8 0 15
-2 15 -4z m350 -21 c10 -12 10 -15 -4 -15 -9 0 -16 7 -16 15 0 8 2 15 4 15 2
0 9 -7 16 -15z m-1338 -28 c20 -20 91 -67 102 -67 4 0 2 7 -5 17 -13 15 -12
15 9 2 12 -8 22 -18 22 -23 0 -5 7 -18 17 -28 23 -26 8 -35 -26 -15 -19 11
-51 17 -88 17 l-59 0 3 48 c1 26 2 50 2 55 1 10 8 9 23 -6z m698 -72 c14 -19
14 -19 -2 -6 -10 7 -18 18 -18 24 0 6 1 8 3 6 1 -2 9 -13 17 -24z m51 -57 c23
-28 24 -48 3 -48 -11 0 -14 6 -9 20 4 13 1 22 -9 26 -9 3 -16 10 -16 15 0 15
11 10 31 -13z m-3261 -78 c0 -5 -4 -10 -10 -10 -5 0 -10 5 -10 10 0 6 5 10 10
10 6 0 10 -4 10 -10z m2990 -82 c0 -14 -19 1 -31 25 -12 22 -12 22 10 3 11
-11 21 -23 21 -28z m-70 -8 c8 -5 12 -11 9 -14 -3 -3 -14 1 -25 9 -21 16 -8
20 16 5z m90 -31 c0 -6 7 -17 15 -26 17 -16 16 -35 0 -34 -6 0 -12 8 -15 18
-3 12 -14 18 -32 18 -17 -1 -28 4 -28 12 0 16 5 16 30 3 15 -8 17 -7 12 12 -3
14 -1 19 6 14 7 -4 12 -12 12 -17z m-126 -28 c-6 -26 -4 -29 15 -24 15 4 21 1
21 -11 0 -18 15 -22 25 -6 8 14 42 13 51 -2 5 -8 2 -9 -10 -5 -10 4 -24 1 -33
-8 -13 -13 -13 -18 -1 -33 7 -9 19 -21 26 -25 6 -4 12 -15 12 -23 0 -8 14 -29
31 -47 28 -28 29 -32 12 -37 -21 -6 -23 -24 -3 -62 15 -31 40 -38 40 -11 0 14
2 15 13 4 10 -11 10 -14 0 -18 -7 -3 -13 -11 -13 -19 0 -8 -3 -14 -7 -14 -15
0 -66 92 -67 118 -1 16 -7 28 -16 28 -8 1 -19 2 -24 3 -6 0 -1 7 10 15 17 13
14 30 -4 31 -4 1 -20 4 -36 8 -20 6 -32 4 -37 -5 -7 -10 -9 -10 -9 -1 0 7 9
18 20 25 23 15 27 33 5 24 -8 -3 -19 2 -24 12 -9 15 -10 14 -11 -6 0 -13 -4
-21 -9 -18 -13 8 -4 103 11 120 18 21 18 20 12 -13z m-106 -99 c6 -18 -15 -14
-22 4 -4 10 -1 14 6 12 6 -2 14 -10 16 -16z m217 8 c-3 -5 -11 -10 -16 -10 -6
0 -7 5 -4 10 3 6 11 10 16 10 6 0 7 -4 4 -10z m-3525 -39 c-6 -12 -15 -21 -21
-21 -5 0 -2 11 8 24 21 28 29 27 13 -3z m460 8 c0 -6 -4 -7 -10 -4 -5 3 -10
11 -10 16 0 6 5 7 10 4 6 -3 10 -11 10 -16z m2880 -8 c0 -5 10 -11 23 -13 18
-2 22 -9 21 -36 -2 -26 2 -33 22 -38 25 -6 51 -41 40 -52 -12 -11 -36 -10 -35
1 4 31 -2 38 -23 31 -30 -9 -30 -8 -22 -28 4 -10 13 -15 21 -11 10 3 13 1 10
-9 -3 -8 1 -17 8 -20 18 -7 8 -36 -12 -36 -9 0 -13 6 -9 15 6 18 1 19 -24 5
-13 -7 -19 -6 -23 4 -4 10 0 12 15 8 15 -3 19 -1 16 9 -2 8 -14 15 -26 17 -21
3 -32 32 -12 32 6 0 9 6 8 13 -2 6 5 11 14 9 16 -3 17 0 5 25 -6 15 -21 35
-31 44 -11 9 -16 21 -12 27 9 14 26 16 26 3z m-90 -11 c0 -5 -5 -10 -11 -10
-5 0 -7 5 -4 10 3 6 8 10 11 10 2 0 4 -4 4 -10z m381 -58 c20 -31 40 -69 44
-82 4 -14 12 -31 18 -39 9 -10 7 -13 -8 -10 -13 3 -22 16 -26 38 -4 18 -11 36
-16 40 -8 5 -63 99 -63 107 0 17 21 -5 51 -54z m-3615 11 c-10 -10 -19 5 -10
18 6 11 8 11 12 0 2 -7 1 -15 -2 -18z m2509 -3 c-3 -5 -11 -10 -16 -10 -6 0
-7 5 -4 10 3 6 11 10 16 10 6 0 7 -4 4 -10z m945 -21 c0 -6 -4 -7 -10 -4 -5 3
-10 11 -10 16 0 6 5 7 10 4 6 -3 10 -11 10 -16z m-2324 -26 c-10 -10 -19 5
-10 18 6 11 8 11 12 0 2 -7 1 -15 -2 -18z m2074 4 c0 -13 5 -28 11 -34 6 -6
10 -16 7 -23 -2 -6 -15 7 -30 29 -26 40 -26 51 -1 51 7 0 13 -10 13 -23z m710
-1 c0 -2 3 -11 6 -20 3 -9 1 -16 -5 -16 -6 0 -11 6 -11 14 0 8 -8 17 -17 19
-14 4 -12 5 5 6 12 0 22 -1 22 -3z m-780 -17 c0 -6 7 -9 15 -6 8 4 17 2 20 -3
4 -6 1 -10 -4 -10 -20 0 -11 -18 12 -25 12 -3 17 -9 10 -11 -17 -7 -4 -34 13
-27 9 3 14 -2 14 -16 0 -12 5 -21 10 -21 6 0 10 -13 10 -29 0 -16 4 -31 9 -33
10 -4 57 -82 72 -120 12 -30 32 -39 23 -10 -4 11 1 8 15 -8 31 -38 25 -19 -23
72 -68 129 -80 151 -93 166 -20 22 -15 27 7 7 11 -10 20 -24 20 -32 0 -7 3
-13 8 -13 4 0 12 -10 17 -22 6 -13 18 -22 28 -21 12 0 16 -4 13 -13 -3 -7 -1
-16 5 -19 5 -4 7 -10 4 -14 -2 -5 4 -16 15 -26 11 -10 17 -21 14 -26 -2 -4 9
-32 26 -62 34 -60 37 -77 15 -77 -8 0 -15 7 -15 15 0 18 -16 20 -24 3 -4 -7
-4 -3 -2 10 3 14 -1 22 -9 22 -8 0 -15 -8 -17 -17 -2 -12 -18 6 -47 55 -24 39
-47 72 -52 72 -5 0 -6 6 -3 13 2 7 -7 24 -21 37 -14 13 -25 29 -25 37 0 7 -6
13 -13 13 -26 0 -61 58 -62 105 -1 25 2 45 7 45 4 0 8 -5 8 -11z m450 -10 c0
-6 -4 -7 -10 -4 -5 3 -10 11 -10 16 0 6 5 7 10 4 6 -3 10 -11 10 -16z m-500 1
c0 -5 -2 -10 -4 -10 -3 0 -8 5 -11 10 -3 6 -1 10 4 10 6 0 11 -4 11 -10z m-19
-32 c13 -18 27 -34 31 -36 4 -2 8 -12 8 -22 0 -9 7 -23 15 -30 8 -7 15 -19 15
-27 0 -7 7 -16 16 -20 16 -6 16 -7 0 -18 -14 -11 -15 -17 -4 -41 7 -16 21 -38
30 -48 10 -10 15 -23 12 -27 -6 -11 28 -79 37 -73 4 2 11 -1 15 -7 4 -8 3 -9
-4 -5 -16 9 -15 3 3 -41 18 -42 18 -43 5 -43 -6 0 -14 8 -17 18 -4 9 -22 42
-40 72 -18 30 -33 63 -33 74 0 15 -3 16 -14 7 -11 -9 -15 -6 -18 13 -4 17 -1
23 9 19 18 -7 17 -1 -12 53 -14 26 -25 52 -25 59 0 6 -13 36 -29 67 -15 31
-31 63 -34 72 -11 28 11 17 34 -16z m379 -9 c-7 -11 -14 -18 -17 -15 -3 3 0
12 7 21 18 21 23 19 10 -6z m500 11 c0 -5 -7 -10 -15 -10 -8 0 -15 5 -15 10 0
6 7 10 15 10 8 0 15 -4 15 -10z m-459 -23 c-1 -12 -15 -9 -19 4 -3 6 1 10 8 8
6 -3 11 -8 11 -12z m50 -14 c13 -16 12 -17 -3 -4 -17 13 -22 21 -14 21 2 0 10
-8 17 -17z m-223 -24 c14 -16 19 -29 14 -33 -6 -3 -18 8 -26 25 -13 26 -23 54
-13 38 1 -2 12 -16 25 -30z m147 21 c3 -5 1 -10 -4 -10 -6 0 -11 5 -11 10 0 6
2 10 4 10 3 0 8 -4 11 -10z m-422 -25 c-7 -19 22 -81 44 -93 17 -10 12 -42 -8
-42 -6 0 -9 7 -6 15 4 8 2 17 -3 20 -4 3 -11 -1 -13 -7 -3 -8 -6 -6 -6 5 -1 9
-9 33 -19 52 -14 26 -22 31 -30 23 -9 -9 -12 -8 -12 5 0 10 8 17 20 17 11 0
20 7 20 16 0 8 4 13 10 9 5 -3 7 -12 3 -20z m-2585 -37 c0 -30 -7 -66 -16 -83
l-17 -30 -3 58 c-2 41 2 66 13 83 8 13 17 24 20 24 2 0 4 -24 3 -52z m2962 14
c0 -15 -2 -15 -10 -2 -13 20 -13 33 0 25 6 -3 10 -14 10 -23z m140 18 c0 -5 7
-10 15 -10 16 0 20 -16 6 -24 -5 -3 -16 5 -25 19 -9 14 -12 25 -6 25 5 0 10
-4 10 -10z m-570 -43 c0 -4 5 -5 11 -1 8 5 8 1 0 -14 -8 -15 -7 -29 4 -55 8
-20 19 -38 25 -42 5 -3 10 -16 11 -28 0 -12 3 -16 6 -9 9 23 24 12 43 -34 24
-56 24 -54 0 -54 -18 0 -18 -1 -2 -29 9 -16 22 -27 29 -24 16 6 18 -23 2 -33
-8 -4 -8 -9 0 -17 6 -6 11 -20 10 -32 0 -15 -5 -11 -17 15 -8 19 -16 39 -16
44 -1 5 -7 11 -15 14 -8 3 -11 0 -7 -7 4 -6 3 -11 -3 -11 -5 0 -17 -7 -26 -16
-9 -9 -19 -14 -22 -10 -4 3 8 19 26 35 l32 29 -22 48 c-59 131 -71 154 -80
159 -12 8 -11 45 2 45 5 0 3 10 -5 22 -21 30 -22 61 -1 34 8 -11 15 -24 15
-29z m695 33 c-4 -6 3 -26 14 -45 19 -33 15 -49 -6 -22 -14 17 -24 63 -16 71
10 10 15 7 8 -4z m-2726 -55 c-1 -29 -1 -29 -9 -5 -4 14 -8 34 -9 45 -1 16 1
17 9 5 5 -8 9 -28 9 -45z m1953 35 c-1 -7 3 -19 9 -27 10 -11 10 -14 -2 -11
-18 4 -29 19 -29 41 0 11 5 17 13 14 6 -2 11 -10 9 -17z m153 10 c3 -5 1 -10
-4 -10 -6 0 -11 5 -11 10 0 6 2 10 4 10 3 0 8 -4 11 -10z m465 2 c0 -4 -9 -8
-20 -8 -11 0 -20 4 -20 8 0 4 9 8 20 8 11 0 20 -4 20 -8z m-575 -32 c3 -5 1
-10 -4 -10 -6 0 -11 5 -11 10 0 6 2 10 4 10 3 0 8 -4 11 -10z m575 1 c0 -5 9
-11 19 -13 17 -3 17 -5 -7 -22 -24 -18 -25 -18 -19 -2 4 10 2 25 -4 32 -8 10
-8 14 0 14 6 0 11 -4 11 -9z m100 -10 c0 -5 -7 -14 -15 -21 -12 -10 -15 -10
-15 2 0 8 3 18 7 21 9 10 23 9 23 -2z m-160 -11 c0 -5 -7 -10 -15 -10 -8 0
-15 5 -15 10 0 6 7 10 15 10 8 0 15 -4 15 -10z m-620 -36 c0 -27 53 -173 61
-168 5 3 9 -3 9 -12 0 -26 23 -84 33 -84 4 0 6 -4 3 -9 -3 -4 3 -27 14 -49 24
-49 25 -72 5 -72 -8 0 -19 17 -25 41 -10 37 -14 40 -36 35 -27 -7 -32 5 -9 24
22 18 7 77 -32 122 -10 11 -14 30 -11 53 2 19 1 35 -2 35 -4 0 -12 19 -19 43
-7 23 -15 51 -18 62 -5 17 -4 18 11 6 9 -7 16 -19 16 -27z m570 24 c0 -4 -7
-8 -15 -8 -8 0 -15 4 -15 8 0 5 7 9 15 9 8 0 15 -4 15 -9z m-3176 -19 c-8 -14
-24 -10 -24 6 0 9 6 12 15 9 8 -4 12 -10 9 -15z m66 -8 c-7 -14 -7 -21 0 -21
5 0 10 5 10 10 0 6 5 10 10 10 13 0 13 -37 1 -45 -5 -3 -12 -1 -16 5 -4 7 -13
7 -26 -1 -12 -6 -23 -8 -27 -5 -3 3 0 6 8 6 9 0 10 4 2 13 -13 15 -5 29 23 45
25 13 29 9 15 -17z m3265 10 c-3 -6 -11 -8 -17 -5 -6 4 -5 9 3 15 16 10 23 4
14 -10z m-638 -5 c-3 -7 -1 -18 5 -24 8 -8 7 -13 -6 -18 -13 -5 -14 -9 -5 -20
25 -31 77 -148 71 -162 -4 -11 -1 -14 11 -9 23 9 21 4 -5 -19 -19 -17 -21 -17
-15 -2 4 10 -6 41 -23 74 -17 31 -30 62 -30 69 0 7 -11 16 -25 19 -14 4 -25
13 -25 22 0 8 5 12 10 9 6 -4 10 10 10 34 0 31 4 41 16 41 10 0 14 -6 11 -14z
m563 -16 c0 -9 9 -29 20 -43 26 -33 26 -58 1 -30 -16 17 -51 85 -51 99 0 2 7
1 15 -2 8 -4 15 -14 15 -24z m-95 10 c3 -5 2 -10 -4 -10 -5 0 -13 5 -16 10 -3
6 -2 10 4 10 5 0 13 -4 16 -10z m-1644 -49 c7 11 9 10 9 -3 0 -19 35 -42 49
-33 10 6 9 -14 -2 -32 -4 -6 -4 -19 0 -29 6 -15 7 -15 14 4 10 27 33 30 24 3
-4 -13 2 -27 16 -40 20 -19 21 -23 9 -46 -15 -27 -40 -34 -40 -10 0 8 -4 15
-10 15 -13 0 -13 -13 0 -26 6 -6 7 -19 3 -29 -6 -17 -8 -15 -14 9 -5 16 -5 42
-2 57 5 24 3 28 -11 23 -15 -6 -22 6 -16 31 9 44 6 53 -20 58 -15 4 -31 16
-38 32 -17 38 -15 53 4 26 13 -18 18 -20 25 -10z m154 19 c3 -5 1 -10 -4 -10
-6 0 -11 5 -11 10 0 6 2 10 4 10 3 0 8 -4 11 -10z m-1535 -10 c0 -5 -5 -10
-11 -10 -5 0 -7 5 -4 10 3 6 8 10 11 10 2 0 4 -4 4 -10z m1285 -46 c-4 -26
-10 -43 -15 -38 -5 5 -4 27 2 52 6 23 13 41 16 38 2 -3 1 -26 -3 -52z m315 40
c0 -8 -4 -12 -10 -9 -5 3 -10 10 -10 16 0 5 5 9 10 9 6 0 10 -7 10 -16z m1487
-30 c-4 -4 -14 1 -22 12 -22 29 -18 41 7 17 12 -13 19 -26 15 -29z m133 37 c0
-5 -6 -14 -14 -20 -12 -10 -13 -8 -9 8 5 21 23 30 23 12z m-1595 -31 c3 -5 1
-10 -4 -10 -6 0 -11 5 -11 10 0 6 2 10 4 10 3 0 8 -4 11 -10z m-49 -14 c15
-16 19 -36 7 -36 -5 0 -13 11 -20 25 -13 28 -8 32 13 11z m1495 -28 c5 -10 6
-18 1 -18 -5 0 -14 11 -20 25 -22 49 -11 44 19 -7z m-1516 12 c3 -5 1 -10 -4
-10 -6 0 -11 5 -11 10 0 6 2 10 4 10 3 0 8 -4 11 -10z m209 -5 c-4 -8 -11 -15
-16 -15 -6 0 -5 6 2 15 7 8 14 15 16 15 2 0 1 -7 -2 -15z m70 7 c3 -5 -1 -9
-9 -9 -8 0 -15 4 -15 9 0 4 4 8 9 8 6 0 12 -4 15 -8z m-463 -22 c-8 -4 -11
-15 -8 -25 4 -9 3 -14 -2 -10 -5 3 -12 -1 -14 -7 -3 -7 -6 -2 -6 11 -1 22 28
55 39 45 2 -3 -2 -9 -9 -14z m1369 10 c0 -5 -2 -10 -4 -10 -3 0 -8 5 -11 10
-3 6 -1 10 4 10 6 0 11 -4 11 -10z m-1547 -6 c9 -10 -4 -34 -19 -34 -16 0 -16
2 -8 24 6 17 16 20 27 10z m1236 -24 c5 -17 6 -30 1 -30 -13 0 -32 39 -25 50
9 15 12 13 24 -20z m191 20 c0 -5 -4 -10 -10 -10 -5 0 -10 5 -10 10 0 6 5 10
10 10 6 0 10 -4 10 -10z m282 -12 c-7 -7 -12 -8 -12 -2 0 14 12 26 19 19 2 -3
-1 -11 -7 -17z m-1666 -123 c-14 -59 -26 -117 -26 -131 0 -13 -4 -24 -10 -24
-5 0 -10 15 -10 34 0 19 -4 38 -10 41 -14 9 -12 25 3 23 7 -2 12 7 11 20 0 12
3 22 8 22 4 0 8 7 8 15 0 13 -4 14 -21 4 -13 -6 -19 -7 -15 -1 3 6 0 12 -6 15
-10 3 -10 7 0 19 9 11 10 18 2 23 -5 3 -10 14 -10 23 0 13 3 12 15 -5 8 -12
12 -29 8 -39 -5 -13 -3 -16 9 -12 9 4 21 1 27 -5 8 -8 11 -3 11 21 0 25 -3 30
-17 25 -11 -4 -14 -3 -9 5 4 7 13 12 20 12 8 0 17 10 21 23 3 12 9 17 11 10 3
-6 -6 -60 -20 -118z m-93 56 c-9 -13 -21 18 -16 39 7 25 7 25 13 -5 4 -16 5
-32 3 -34z m617 39 c-8 -5 -19 -10 -25 -10 -5 0 -3 5 5 10 8 5 20 10 25 10 6
0 3 -5 -5 -10z m1177 -17 c7 -15 11 -29 8 -31 -2 -3 -7 3 -11 12 -3 9 -12 16
-20 16 -15 0 -19 12 -7 23 11 12 18 8 30 -20z m-1409 -1 c2 -7 -2 -10 -12 -6
-9 3 -16 11 -16 16 0 13 23 5 28 -10z m-246 -14 c-7 -7 -12 -8 -12 -2 0 6 3
14 7 17 3 4 9 5 12 2 2 -3 -1 -11 -7 -17z m488 -3 c7 -9 8 -15 2 -15 -5 0 -12
7 -16 15 -3 8 -4 15 -2 15 2 0 9 -7 16 -15z m642 -7 c-4 -17 -2 -20 11 -15 17
6 24 -7 9 -17 -13 -8 -45 22 -39 39 10 23 26 18 19 -7z m245 0 c-3 -8 -6 -5
-6 6 -1 11 2 17 5 13 3 -3 4 -12 1 -19z m138 2 c-3 -5 -14 -10 -23 -10 -15 0
-15 2 -2 10 20 13 33 13 25 0z m203 -15 c-3 -3 -9 2 -12 12 -6 14 -5 15 5 6 7
-7 10 -15 7 -18z m-1293 -5 c10 -11 16 -20 13 -20 -3 0 -13 9 -23 20 -10 11
-16 20 -13 20 3 0 13 -9 23 -20z m-295 -20 c0 -16 -3 -30 -8 -30 -4 0 -7 14
-7 30 -1 17 3 30 7 30 4 0 8 -13 8 -30z m265 21 c3 -5 2 -12 -3 -15 -5 -3 -9
1 -9 9 0 17 3 19 12 6z m838 -11 c3 -13 0 -20 -9 -20 -8 0 -14 9 -14 20 0 11
4 20 9 20 5 0 11 -9 14 -20z m-1184 -12 c5 -13 5 -25 0 -28 -4 -3 -15 -36 -25
-73 -9 -37 -18 -66 -19 -65 -1 2 -5 21 -8 43 -4 26 -4 33 2 20 7 -17 10 -14
15 20 4 22 11 50 16 63 7 17 6 22 -5 22 -8 0 -15 -6 -15 -14 0 -14 -29 -30
-38 -21 -3 3 1 16 8 30 17 32 57 34 69 3z m1481 1 c7 -11 9 -23 6 -27 -3 -3
-6 -1 -6 5 0 6 -9 13 -20 16 -23 6 -27 27 -5 27 8 0 19 -9 25 -21z m-1690 1
c0 -5 -5 -10 -11 -10 -5 0 -7 5 -4 10 3 6 8 10 11 10 2 0 4 -4 4 -10z m1348
-26 c-3 -14 -5 -12 -10 9 -3 19 -2 25 4 19 6 -6 8 -18 6 -28z m-757 -1 c13
-16 12 -17 -3 -4 -10 7 -18 15 -18 17 0 8 8 3 21 -13z m-536 -13 c3 -5 1 -10
-4 -10 -6 0 -11 5 -11 10 0 6 2 10 4 10 3 0 8 -4 11 -10z m220 -32 c-4 -13 -9
-31 -11 -40 -6 -20 -13 -22 -33 -9 -9 6 -11 18 -7 35 4 15 11 24 16 21 5 -3
11 -1 15 5 12 19 26 10 20 -12z m1015 6 c0 -8 -4 -12 -10 -9 -5 3 -10 10 -10
16 0 5 5 9 10 9 6 0 10 -7 10 -16z m89 -1 c-1 -10 6 -44 14 -75 8 -32 11 -58
7 -58 -8 0 -20 30 -26 65 -2 11 -6 35 -10 53 -4 20 -2 32 4 32 6 0 11 -8 11
-17z m-1548 -56 c-14 -14 -24 12 -16 41 l8 27 8 -30 c5 -16 5 -33 0 -38z m683
47 c3 -8 2 -12 -4 -9 -6 3 -10 10 -10 16 0 14 7 11 14 -7z m44 -9 c-3 -3 -9 2
-12 12 -6 14 -5 15 5 6 7 -7 10 -15 7 -18z m-73 -45 c18 -20 18 -21 0 -14 -14
6 -16 4 -10 -7 4 -8 4 -11 0 -6 -7 6 -16 47 -10 47 1 0 10 -9 20 -20z m833 -9
c-11 -18 -10 -22 6 -34 14 -10 17 -19 11 -33 -8 -18 -9 -17 -12 4 -3 12 -11
22 -18 22 -9 0 -13 11 -13 30 1 16 5 27 9 24 4 -2 11 1 14 7 4 5 9 8 12 6 2
-3 -1 -14 -9 -26z m-888 15 c0 -2 -7 -7 -16 -10 -8 -3 -12 -2 -9 4 6 10 25 14
25 6z m845 -6 c3 -5 1 -10 -4 -10 -6 0 -11 5 -11 10 0 6 2 10 4 10 3 0 8 -4
11 -10z m-205 -50 c0 -13 -1 -13 -10 0 -5 8 -10 22 -10 30 0 13 1 13 10 0 5
-8 10 -22 10 -30z m-850 12 c0 -13 -12 -22 -22 -16 -10 6 -1 24 13 24 5 0 9
-4 9 -8z m-284 -60 c-11 -10 -15 4 -8 28 l7 25 3 -23 c2 -13 1 -26 -2 -30z
m222 15 c2 -15 -1 -27 -7 -27 -6 0 -11 3 -11 8 0 4 -3 18 -7 31 -4 18 -2 23 8
19 8 -2 15 -17 17 -31z m972 19 c0 -3 -4 -8 -10 -11 -5 -3 -10 -1 -10 4 0 6 5
11 10 11 6 0 10 -2 10 -4z m99 -23 c0 -25 -1 -26 -9 -8 -12 27 -12 35 0 35 6
0 10 -12 9 -27z m-1165 2 c-4 -8 -8 -15 -10 -15 -2 0 -4 7 -4 15 0 8 4 15 10
15 5 0 7 -7 4 -15z m1019 -72 c4 -30 2 -40 -7 -37 -8 3 -13 24 -14 51 0 54 13
45 21 -14z m82 37 c3 -5 1 -10 -4 -10 -6 0 -11 5 -11 10 0 6 2 10 4 10 3 0 8
-4 11 -10z m-975 -10 c0 -5 -5 -10 -11 -10 -5 0 -7 5 -4 10 3 6 8 10 11 10 2
0 4 -4 4 -10z m950 1 c0 -6 -4 -13 -10 -16 -5 -3 -10 1 -10 9 0 9 5 16 10 16
6 0 10 -4 10 -9z m97 -23 c-3 -8 -6 -5 -6 6 -1 11 2 17 5 13 3 -3 4 -12 1 -19z
m-1078 -103 c3 -6 -2 -2 -11 8 -10 11 -15 24 -11 31 5 7 9 4 11 -9 2 -11 7
-25 11 -30z m89 -31 c-4 -3 -12 5 -18 18 -12 22 -12 22 6 6 10 -10 15 -20 12
-24z m162 -47 c-40 -35 -99 -51 -135 -37 -18 8 -25 14 -17 17 8 3 19 0 25 -6
18 -18 40 -13 87 18 54 35 75 39 40 8z"/>
<path d="M3040 6238 c0 -13 5 -30 10 -38 7 -11 10 -7 10 17 0 17 -4 35 -10 38
-6 3 -10 -4 -10 -17z"/>
<path d="M3255 6220 c-3 -5 -1 -10 4 -10 6 0 11 5 11 10 0 6 -2 10 -4 10 -3 0
-8 -4 -11 -10z"/>
<path d="M3058 6033 c7 -3 16 -2 19 1 4 3 -2 6 -13 5 -11 0 -14 -3 -6 -6z"/>
<path d="M2670 5964 c0 -8 5 -12 10 -9 6 3 10 10 10 16 0 5 -4 9 -10 9 -5 0
-10 -7 -10 -16z"/>
<path d="M2741 5924 c0 -11 3 -14 6 -6 3 7 2 16 -1 19 -3 4 -6 -2 -5 -13z"/>
<path d="M3125 5895 c-15 -26 -25 -48 -23 -50 1 -1 18 0 36 2 26 4 37 13 50
39 17 37 17 39 -14 48 -18 6 -26 -1 -49 -39z"/>
<path d="M3093 5813 c-7 -2 -13 -11 -13 -19 0 -9 -4 -13 -10 -9 -5 3 -16 -9
-25 -26 -15 -28 -15 -33 -2 -47 21 -21 42 -10 72 38 39 62 41 70 14 69 -13 0
-30 -3 -36 -6z"/>
<path d="M2655 5850 c27 -12 35 -12 35 0 0 6 -12 10 -27 9 -25 0 -26 -1 -8 -9z"/>
<path d="M3457 5598 c-32 -56 -15 -68 20 -14 16 25 19 36 10 39 -7 3 -21 -9
-30 -25z"/>
<path d="M3005 5599 c-10 -15 3 -25 16 -12 7 7 7 13 1 17 -6 3 -14 1 -17 -5z"/>
<path d="M2750 5529 c0 -5 5 -7 10 -4 6 3 10 8 10 11 0 2 -4 4 -10 4 -5 0 -10
-5 -10 -11z"/>
<path d="M3335 5430 c-3 -5 -1 -10 4 -10 6 0 11 5 11 10 0 6 -2 10 -4 10 -3 0
-8 -4 -11 -10z"/>
<path d="M5280 4060 c0 -5 5 -10 11 -10 5 0 7 5 4 10 -3 6 -8 10 -11 10 -2 0
-4 -4 -4 -10z"/>
<path d="M5200 3914 c0 -8 5 -12 10 -9 6 3 10 10 10 16 0 5 -4 9 -10 9 -5 0
-10 -7 -10 -16z"/>
<path d="M4865 3850 c3 -5 10 -10 16 -10 5 0 9 5 9 10 0 6 -7 10 -16 10 -8 0
-12 -4 -9 -10z"/>
<path d="M4910 3615 c0 -16 16 -20 24 -6 3 5 -1 11 -9 15 -9 3 -15 0 -15 -9z"/>
<path d="M4794 3605 c-8 -20 44 -71 58 -57 7 7 3 14 -11 21 -12 7 -21 21 -21
31 0 24 -18 27 -26 5z"/>
<path d="M5050 3611 c0 -6 5 -13 10 -16 6 -3 10 1 10 9 0 9 -4 16 -10 16 -5 0
-10 -4 -10 -9z"/>
<path d="M5148 3593 c7 -3 16 -2 19 1 4 3 -2 6 -13 5 -11 0 -14 -3 -6 -6z"/>
<path d="M4953 3575 c-3 -9 -3 -18 0 -21 9 -9 27 6 27 22 0 19 -19 18 -27 -1z"/>
<path d="M4665 3540 c-4 -7 36 -40 50 -40 8 0 6 40 -2 41 -5 0 -16 2 -25 4
-10 2 -20 0 -23 -5z"/>
<path d="M4916 3518 c12 -24 18 -28 25 -17 13 21 11 25 -16 37 l-25 12 16 -32z"/>
<path d="M4951 3486 c-7 -13 -10 -33 -7 -44 4 -13 1 -22 -9 -26 -18 -7 -20
-26 -2 -26 16 1 65 39 50 40 -15 0 -18 36 -4 44 5 4 18 -6 29 -21 15 -20 24
-25 32 -17 16 16 2 43 -26 50 -13 3 -24 10 -24 15 0 18 -27 8 -39 -15z"/>
<path d="M5180 3500 c0 -5 5 -10 10 -10 6 0 10 5 10 10 0 6 -4 10 -10 10 -5 0
-10 -4 -10 -10z"/>
<path d="M4662 3455 c12 -27 28 -34 28 -12 0 14 -20 37 -32 37 -4 0 -2 -11 4
-25z"/>
<path d="M4900 3464 c0 -8 5 -12 10 -9 6 3 10 10 10 16 0 5 -4 9 -10 9 -5 0
-10 -7 -10 -16z"/>
<path d="M4980 3389 c0 -6 8 -24 17 -40 27 -46 58 -47 34 -1 -5 9 -12 25 -15
35 -6 18 -36 24 -36 6z"/>
<path d="M5047 3380 c3 -11 11 -19 17 -17 17 6 13 31 -6 35 -12 2 -15 -2 -11
-18z"/>
<path d="M4530 3350 c0 -5 7 -10 15 -10 8 0 15 5 15 10 0 6 -7 10 -15 10 -8 0
-15 -4 -15 -10z"/>
<path d="M5105 3320 c-7 -12 2 -30 16 -30 12 0 12 27 0 35 -5 3 -12 1 -16 -5z"/>
<path d="M4612 3268 c5 -15 28 -23 28 -10 0 5 -7 13 -16 16 -10 4 -14 1 -12
-6z"/>
<path d="M4760 3266 c0 -8 7 -21 15 -29 8 -8 12 -17 9 -19 -2 -3 2 -11 11 -18
26 -21 30 15 5 50 -23 32 -40 39 -40 16z"/>
<path d="M4430 3230 c0 -5 5 -10 10 -10 6 0 10 5 10 10 0 6 -4 10 -10 10 -5 0
-10 -4 -10 -10z"/>
<path d="M4605 3230 c3 -5 8 -10 11 -10 2 0 4 5 4 10 0 6 -5 10 -11 10 -5 0
-7 -4 -4 -10z"/>
<path d="M4710 3208 c0 -7 18 -33 40 -58 28 -32 40 -40 40 -27 0 10 -12 28
-27 41 -24 20 -25 26 -14 40 12 14 10 16 -13 16 -14 0 -26 -6 -26 -12z"/>
<path d="M5041 3184 c0 -11 3 -14 6 -6 3 7 2 16 -1 19 -3 4 -6 -2 -5 -13z"/>
<path d="M4885 3180 c4 -6 11 -8 16 -5 14 9 11 15 -7 15 -8 0 -12 -5 -9 -10z"/>
<path d="M4800 3171 c0 -15 16 -22 34 -15 25 9 19 24 -9 24 -14 0 -25 -4 -25
-9z"/>
<path d="M4665 3159 c-10 -15 1 -23 20 -15 9 3 13 10 10 16 -8 13 -22 13 -30
-1z"/>
<path d="M4920 3131 c0 -12 5 -21 10 -21 6 0 10 6 10 14 0 8 -4 18 -10 21 -5
3 -10 -3 -10 -14z"/>
<path d="M4675 3120 c-3 -5 1 -10 9 -10 8 0 18 5 21 10 3 6 -1 10 -9 10 -8 0
-18 -4 -21 -10z"/>
<path d="M4788 3056 c-3 -29 0 -35 19 -39 35 -7 45 12 22 45 -27 37 -36 35
-41 -6z m42 -17 c0 -5 -7 -9 -15 -9 -15 0 -20 12 -9 23 8 8 24 -1 24 -14z"/>
<path d="M4390 2948 c0 -10 7 -18 15 -18 8 0 15 -8 15 -18 0 -10 5 -23 12 -30
9 -9 9 -12 -2 -12 -11 -1 -10 -5 4 -15 11 -8 23 -15 28 -15 14 0 8 34 -12 67
-11 19 -15 35 -10 38 19 12 10 22 -20 22 -22 0 -30 -5 -30 -19z"/>
<path d="M4770 2932 c0 -10 -5 -23 -12 -30 -9 -9 -7 -12 13 -13 16 -1 19 -3 7
-6 -20 -5 -24 -28 -8 -38 6 -3 10 0 10 9 0 8 5 16 11 18 6 2 11 17 12 33 1 17
6 33 12 37 5 4 -2 8 -17 8 -20 0 -28 -5 -28 -18z"/>
<path d="M4820 2871 c0 -11 5 -23 10 -26 6 -3 10 1 10 9 0 9 0 19 1 23 0 4 -4
9 -10 11 -6 2 -11 -5 -11 -17z"/>
<path d="M4226 2872 c-4 -7 -3 -12 3 -12 5 0 17 -18 27 -40 10 -22 21 -40 26
-40 15 0 8 35 -9 51 -10 9 -23 24 -29 34 -7 14 -13 15 -18 7z"/>
<path d="M4349 2843 c-11 -13 -11 -17 -1 -20 6 -3 12 -13 12 -23 0 -29 11 -50
26 -50 8 0 14 -7 14 -15 0 -9 6 -12 15 -9 10 4 15 0 15 -14 0 -23 15 -37 24
-23 4 5 2 12 -4 16 -6 4 -8 11 -5 16 4 5 2 9 -3 9 -5 0 -7 11 -5 24 4 17 -1
27 -16 36 -12 6 -19 15 -16 21 4 5 0 12 -9 15 -8 3 -12 12 -9 20 7 20 -21 18
-38 -3z"/>
<path d="M4475 2820 c-3 -5 1 -10 9 -10 8 0 17 -9 21 -19 3 -11 12 -25 21 -32
12 -10 13 -9 8 5 -4 11 -1 16 12 16 15 0 13 5 -11 25 -32 26 -50 31 -60 15z"/>
<path d="M4193 2778 c2 -7 8 -24 12 -38 7 -22 6 -23 -9 -11 -31 26 -24 6 17
-51 46 -63 79 -80 46 -24 -13 23 -18 43 -13 60 4 19 2 28 -10 32 -9 3 -16 15
-16 25 0 11 -7 19 -16 19 -9 0 -14 -6 -11 -12z"/>
<path d="M4315 2765 c4 -11 10 -31 13 -45 6 -28 51 -86 63 -83 5 2 6 -4 3 -11
-3 -8 4 -23 16 -34 12 -11 35 -33 51 -48 29 -27 42 -19 14 10 -8 8 -15 19 -15
25 0 6 -4 11 -10 11 -5 0 -10 7 -10 15 0 8 -4 15 -9 15 -5 0 -11 10 -13 23 -2
12 -7 22 -13 22 -11 0 -55 41 -54 50 0 3 -9 20 -21 38 -12 18 -19 23 -15 12z"/>
<path d="M3999 2753 c-10 -11 -10 -14 -1 -9 8 5 12 0 12 -14 0 -15 5 -20 14
-17 10 4 13 1 10 -7 -7 -19 35 -96 52 -96 8 0 14 -6 14 -14 0 -8 3 -16 8 -18
21 -9 50 -67 45 -90 -3 -14 1 -36 8 -49 7 -13 12 -27 11 -31 -3 -12 16 -9 24
3 3 6 1 15 -6 19 -8 5 -14 30 -15 62 -1 59 -20 113 -35 103 -5 -3 -10 3 -10
14 0 23 -18 37 -42 33 -17 -3 -23 12 -19 46 1 6 -2 12 -7 12 -4 0 -14 16 -22
35 -15 39 -22 42 -41 18z"/>
<path d="M3945 2751 c-3 -5 6 -22 21 -38 18 -19 24 -22 20 -10 -3 10 -6 27 -6
38 0 19 -24 26 -35 10z"/>
<path d="M4597 2708 c-8 -28 -2 -34 17 -19 8 7 12 19 9 27 -8 21 -20 17 -26
-8z"/>
<path d="M3914 2704 c3 -9 6 -18 6 -20 0 -2 4 -4 9 -4 5 0 7 9 4 20 -3 11 -10
20 -15 20 -6 0 -7 -7 -4 -16z"/>
<path d="M4475 2710 c-8 -14 3 -30 21 -30 17 0 18 -12 2 -28 -7 -7 -8 -12 -2
-12 31 0 36 39 8 68 -15 15 -21 15 -29 2z"/>
<path d="M4633 2694 c-6 -13 -7 -24 -3 -24 9 0 25 39 18 45 -2 2 -8 -7 -15
-21z"/>
<path d="M4260 2697 c0 -7 15 -28 34 -46 23 -22 32 -39 29 -52 -3 -10 -10 -19
-15 -19 -5 0 -7 -4 -4 -9 3 -4 18 -7 33 -5 16 2 20 1 11 -2 -21 -6 -21 -8 -9
-32 5 -9 12 -25 15 -36 5 -14 13 -17 32 -13 20 3 28 0 31 -14 6 -23 23 -25 23
-4 0 9 -6 18 -14 21 -8 3 -18 20 -22 37 -7 33 -51 107 -64 107 -4 0 -20 18
-35 40 -28 41 -45 51 -45 27z"/>
<path d="M4160 2683 c0 -6 7 -16 15 -23 8 -7 15 -19 15 -26 0 -8 7 -14 15 -14
8 0 15 3 15 8 -1 11 -60 66 -60 55z"/>
<path d="M4642 2648 c6 -18 28 -21 28 -4 0 9 -7 16 -16 16 -9 0 -14 -5 -12
-12z"/>
<path d="M4520 2625 c-10 -12 -10 -15 3 -15 9 0 17 -7 19 -15 2 -9 8 -12 17
-6 16 10 6 51 -13 51 -8 0 -19 -7 -26 -15z"/>
<path d="M4211 2596 c-8 -10 -8 -16 3 -25 7 -6 16 -26 20 -43 7 -34 20 -29 29
12 4 16 -1 33 -13 48 -21 26 -24 26 -39 8z"/>
<path d="M4060 2585 c0 -20 17 -28 23 -11 3 8 -1 17 -9 20 -8 3 -14 -1 -14 -9z"/>
<path d="M3995 2580 c3 -5 8 -10 11 -10 2 0 4 5 4 10 0 6 -5 10 -11 10 -5 0
-7 -4 -4 -10z"/>
<path d="M4027 2542 c6 -25 30 -48 40 -38 4 4 -5 19 -20 33 -24 25 -26 25 -20
5z"/>
<path d="M4080 2541 c0 -4 10 -21 21 -35 15 -19 24 -24 29 -16 4 7 -3 22 -15
36 -23 25 -35 30 -35 15z"/>
<path d="M3970 2531 c0 -5 11 -18 25 -29 14 -11 25 -24 25 -30 0 -5 7 -15 15
-22 21 -18 19 -2 -7 48 -14 25 -30 42 -40 42 -10 0 -18 -4 -18 -9z"/>
<path d="M4285 2520 c-12 -20 6 -52 26 -47 16 4 18 1 13 -19 -4 -15 -2 -24 5
-24 6 0 11 -6 11 -14 0 -19 31 -29 44 -15 8 8 8 13 -1 16 -7 3 -13 11 -13 20
0 36 -71 106 -85 83z"/>
<path d="M4050 2417 c0 -9 4 -17 9 -19 14 -5 81 -97 81 -110 0 -9 4 -8 13 1
10 11 10 14 0 18 -7 3 -13 9 -13 13 0 5 -11 21 -24 35 -14 15 -26 36 -28 48
-3 25 -38 37 -38 14z"/>
<path d="M4160 2375 c0 -8 4 -15 10 -15 5 0 7 7 4 15 -4 8 -8 15 -10 15 -2 0
-4 -7 -4 -15z"/>
<path d="M1675 3750 c3 -5 8 -10 11 -10 2 0 4 5 4 10 0 6 -5 10 -11 10 -5 0
-7 -4 -4 -10z"/>
<path d="M1817 3714 c-14 -15 -6 -34 14 -34 14 0 19 5 17 17 -3 18 -20 27 -31
17z"/>
<path d="M1725 3510 c-14 -29 -24 -54 -21 -57 2 -3 17 18 31 47 14 29 24 54
21 57 -2 3 -17 -18 -31 -47z"/>
<path d="M1827 3484 c-15 -31 -26 -59 -23 -61 3 -3 19 22 35 56 17 34 28 61
24 61 -5 0 -21 -25 -36 -56z"/>
<path d="M3500 2316 c0 -9 5 -16 10 -16 6 0 10 4 10 9 0 6 -4 13 -10 16 -5 3
-10 -1 -10 -9z"/>
<path d="M3415 2040 c-4 -7 1 -21 14 -33 24 -24 27 -14 7 22 -9 17 -15 20 -21
11z"/>
<path d="M2210 1929 c0 -5 5 -7 10 -4 6 3 10 8 10 11 0 2 -4 4 -10 4 -5 0 -10
-5 -10 -11z"/>
<path d="M2100 1809 c0 -11 4 -18 10 -14 5 3 7 12 3 20 -7 21 -13 19 -13 -6z"/>
<path d="M4813 10303 c15 -2 37 -2 50 0 12 2 0 4 -28 4 -27 0 -38 -2 -22 -4z"/>
<path d="M4378 9503 c7 -3 16 -2 19 1 4 3 -2 6 -13 5 -11 0 -14 -3 -6 -6z"/>
<path d="M1987 6616 c-15 -20 -45 -43 -65 -52 -34 -14 -35 -17 -19 -28 23 -18
22 -26 -10 -64 -23 -28 -36 -34 -77 -37 -60 -5 -89 -30 -123 -105 -13 -30 -31
-68 -39 -83 -8 -16 -14 -33 -14 -39 0 -5 -7 -25 -16 -43 -17 -37 -16 -76 3
-82 6 -2 14 5 18 17 15 46 108 53 196 14 l58 -26 83 69 c99 83 154 120 229
157 68 32 269 87 297 80 14 -4 21 0 25 15 3 14 0 21 -9 21 -8 0 -14 5 -14 10
0 6 9 10 20 10 11 0 20 5 20 11 0 5 -5 7 -10 4 -6 -3 -15 6 -20 21 -8 21 -14
24 -22 16 -17 -17 -38 -15 -38 4 0 9 9 18 19 21 19 5 35 51 26 76 -3 7 -15 18
-27 26 -19 12 -23 11 -39 -10 -18 -24 -18 -24 12 -29 16 -3 30 -8 29 -12 0 -5
0 -12 0 -18 0 -5 -9 -10 -20 -10 -13 0 -20 -7 -20 -19 0 -11 -4 -22 -9 -25
-10 -7 -71 59 -71 76 0 5 -9 8 -20 5 -10 -3 -21 0 -24 7 -2 6 -5 5 -5 -4 -1
-8 -13 -20 -27 -27 -21 -10 -29 -10 -41 2 -22 23 -30 18 -38 -22 -7 -37 -8
-37 -17 -13 -37 95 -48 106 -124 115 -47 6 -50 5 -77 -29z"/>
<path d="M1020 6115 c0 -13 4 -14 20 -5 11 6 20 13 20 15 0 3 -9 5 -20 5 -11
0 -20 -7 -20 -15z"/>
<path d="M940 6087 c0 -7 9 -18 20 -25 16 -10 20 -10 20 1 0 14 -20 37 -32 37
-4 0 -8 -6 -8 -13z"/>
<path d="M905 6040 c3 -5 8 -10 11 -10 2 0 4 5 4 10 0 6 -5 10 -11 10 -5 0 -7
-4 -4 -10z"/>
<path d="M1000 6023 c0 -5 12 -19 25 -32 30 -27 34 -10 5 19 -21 21 -30 25
-30 13z"/>
<path d="M1010 5926 c0 -2 7 -9 15 -16 9 -7 15 -8 15 -2 0 5 -7 12 -15 16 -8
3 -15 4 -15 2z"/>
<path d="M730 5871 c0 -6 5 -13 10 -16 6 -3 10 1 10 9 0 9 -4 16 -10 16 -5 0
-10 -4 -10 -9z"/>
<path d="M886 5845 c4 -8 8 -15 10 -15 2 0 4 7 4 15 0 8 -4 15 -10 15 -5 0 -7
-7 -4 -15z"/>
<path d="M810 5705 c7 -9 15 -13 17 -11 7 7 -7 26 -19 26 -6 0 -6 -6 2 -15z"/>
<path d="M710 5665 c0 -8 4 -15 10 -15 5 0 9 -10 7 -22 -1 -14 4 -23 16 -26
20 -4 22 13 5 51 -14 29 -38 37 -38 12z"/>
<path d="M825 5610 c-4 -7 -1 -16 6 -21 17 -10 26 8 11 23 -6 6 -12 6 -17 -2z"/>
<path d="M852 5539 c2 -6 8 -10 13 -10 5 0 11 4 13 10 2 6 -4 11 -13 11 -9 0
-15 -5 -13 -11z"/>
<path d="M1180 5387 c0 -8 9 -22 19 -31 25 -23 37 -3 14 24 -20 23 -33 26 -33
7z"/>
<path d="M320 5280 c0 -5 5 -10 11 -10 5 0 7 5 4 10 -3 6 -8 10 -11 10 -2 0
-4 -4 -4 -10z"/>
<path d="M1270 5264 c0 -8 5 -12 10 -9 6 4 8 11 5 16 -9 14 -15 11 -15 -7z"/>
<path d="M400 5230 c0 -5 4 -10 9 -10 6 0 13 5 16 10 3 6 -1 10 -9 10 -9 0
-16 -4 -16 -10z"/>
<path d="M190 5217 c0 -19 16 -31 24 -18 3 5 -1 14 -9 21 -12 10 -15 10 -15
-3z"/>
<path d="M400 5150 c0 -5 5 -10 11 -10 5 0 7 5 4 10 -3 6 -8 10 -11 10 -2 0
-4 -4 -4 -10z"/>
<path d="M300 5136 c0 -8 5 -18 10 -21 6 -3 10 1 10 9 0 8 -4 18 -10 21 -5 3
-10 -1 -10 -9z"/>
<path d="M343 5102 c-3 -14 -13 -18 -39 -16 -18 2 -42 7 -51 12 -10 5 -29 6
-43 3 -28 -8 -35 -31 -46 -161 -7 -85 -15 -103 -58 -126 -12 -6 -20 -16 -18
-22 1 -7 -1 -12 -5 -12 -5 0 -8 -21 -9 -46 -1 -28 -7 -49 -15 -55 -10 -6 -11
-13 -4 -26 6 -10 9 -28 7 -40 -3 -20 -6 -21 -25 -10 -12 7 -25 17 -29 22 -4 6
-8 2 -8 -7 0 -10 3 -18 8 -18 4 0 17 -8 30 -18 l22 -17 -20 -154 c-11 -84 -25
-163 -31 -174 -8 -14 -8 -18 0 -13 15 10 14 -17 -1 -32 -10 -10 -10 -14 0 -21
10 -6 11 -24 4 -78 -4 -39 -9 -243 -11 -452 l-3 -381 30 0 c17 0 32 -6 36 -15
3 -8 10 -15 15 -15 6 0 8 7 4 16 -4 12 0 14 21 8 16 -4 26 -2 26 5 0 7 8 7 22
2 14 -5 30 -4 42 3 14 8 20 8 23 -1 7 -21 44 -15 50 7 7 25 63 29 63 5 0 -24
20 -17 21 8 1 12 1 26 0 31 -2 11 32 36 41 30 5 -3 8 0 8 6 0 6 5 8 10 5 6 -3
22 3 35 14 17 13 22 22 14 26 -6 4 -15 1 -20 -6 -5 -8 -9 -10 -9 -5 0 5 -8 2
-19 -8 -16 -15 -19 -15 -31 -1 -16 20 -8 28 27 27 15 0 37 7 48 14 27 19 43
17 50 -6 6 -20 35 -28 35 -10 0 23 -41 51 -63 44 -12 -4 -33 -8 -47 -9 -14 -1
-35 -5 -47 -9 -14 -4 -23 -3 -23 3 0 5 9 13 20 16 11 3 20 11 20 16 0 5 13 9
29 9 40 0 47 16 22 51 -23 32 -26 39 -11 39 13 0 50 -37 50 -50 0 -5 6 -10 14
-10 8 0 18 5 21 10 3 6 1 10 -4 10 -6 0 -11 6 -11 14 0 8 -6 16 -14 19 -9 4
-12 14 -9 26 3 12 0 28 -7 36 -6 8 -9 19 -5 25 4 6 2 17 -4 24 -8 9 -7 13 4
13 8 0 15 -6 15 -14 0 -7 11 -13 25 -13 18 0 28 -7 35 -24 9 -25 28 -42 36
-33 8 8 -37 87 -46 82 -5 -3 -11 -1 -15 5 -4 6 5 10 19 10 14 0 25 -3 24 -7
-3 -12 36 -72 50 -78 6 -2 12 0 12 5 0 6 8 10 18 10 10 0 13 3 7 8 -29 20 -58
77 -60 119 -2 25 -8 48 -13 52 -6 3 -9 27 -7 52 2 40 -1 48 -26 64 -22 15 -27
25 -22 46 4 21 1 28 -16 34 -12 3 -21 11 -21 18 0 8 3 8 12 -1 18 -18 28 -15
29 11 l0 22 9 -22 c5 -13 16 -23 24 -23 8 0 16 -6 19 -12 2 -8 8 -9 13 -4 5 5
4 11 -3 13 -15 5 -18 83 -3 83 5 0 14 -9 20 -20 6 -11 15 -20 20 -20 15 0 12
27 -6 44 -8 9 -11 16 -5 16 6 0 11 4 11 10 0 5 -18 13 -39 16 -44 7 -47 30 -4
30 32 -1 43 21 12 26 -33 4 -45 49 -25 89 9 18 16 40 16 49 0 24 26 46 33 28
2 -7 7 -10 11 -7 9 9 -4 39 -18 39 -14 0 -14 66 0 80 6 6 18 8 27 4 14 -5 16
-16 11 -70 -3 -42 -2 -64 5 -64 6 0 11 8 11 18 0 9 7 25 14 35 12 16 15 16 29
3 8 -9 13 -25 10 -36 -6 -21 11 -28 22 -9 5 6 12 4 21 -8 12 -16 13 -16 14 -1
0 9 -4 20 -10 23 -5 3 -10 17 -10 30 0 17 -6 25 -22 27 -17 2 -24 11 -26 31
-3 23 -6 26 -18 16 -11 -9 -14 -8 -14 3 0 9 -9 27 -20 41 -21 26 -27 77 -10
77 6 0 10 6 10 14 0 8 8 16 17 18 15 3 15 4 0 20 -13 12 -16 29 -14 61 2 24 7
49 10 54 3 5 -11 18 -31 28 -24 12 -32 19 -22 23 7 3 16 0 18 -6 4 -13 32 -17
32 -4 0 4 -9 13 -20 20 -11 7 -20 17 -20 22 0 6 9 10 20 10 11 0 20 5 20 10 0
6 -4 10 -10 10 -5 0 -7 6 -4 14 3 8 1 17 -5 21 -6 3 -11 12 -11 18 0 7 6 5 13
-5 7 -9 26 -20 43 -24 27 -7 27 -5 -19 39 -45 42 -47 46 -25 49 15 2 24 11 26
25 4 26 -44 65 -84 69 -15 2 -30 8 -34 13 -4 7 -13 6 -26 -4 -28 -21 -47 -18
-109 15 -65 35 -75 36 -82 12z m47 -23 c0 -5 -4 -9 -10 -9 -5 0 -10 7 -10 16
0 8 5 12 10 9 6 -3 10 -10 10 -16z m257 -369 c1 -11 -2 -18 -8 -15 -11 7 -12
35 -1 35 4 0 8 -9 9 -20z m-587 -697 c-9 -15 -10 -12 -6 16 3 18 7 50 8 70 1
25 3 20 5 -16 2 -29 -1 -61 -7 -70z m430 45 c0 18 20 15 20 -3 0 -24 -31 -31
-46 -10 -23 31 -17 54 6 25 11 -14 20 -19 20 -12z m-9 -118 c36 -33 40 -40 26
-46 -12 -4 -26 4 -47 27 -25 29 -39 59 -26 59 2 0 23 -18 47 -40z m69 -69 c0
-5 3 -18 7 -28 6 -15 4 -16 -9 -6 -8 7 -17 10 -21 7 -4 -5 -3 16 2 34 2 7 21
1 21 -7z m-63 -158 c-3 -10 -5 -4 -5 12 0 17 2 24 5 18 2 -7 2 -21 0 -30z"/>
<path d="M1255 5100 c-3 -5 -1 -10 4 -10 6 0 11 5 11 10 0 6 -2 10 -4 10 -3 0
-8 -4 -11 -10z"/>
<path d="M1733 5088 c2 -7 12 -13 22 -13 10 0 20 6 23 13 2 7 -6 12 -23 12
-17 0 -25 -5 -22 -12z"/>
<path d="M1722 5048 c5 -15 28 -23 28 -10 0 5 -7 13 -16 16 -10 4 -14 1 -12
-6z"/>
<path d="M151 5024 c0 -11 3 -14 6 -6 3 7 2 16 -1 19 -3 4 -6 -2 -5 -13z"/>
<path d="M710 4970 c0 -5 5 -10 10 -10 6 0 10 5 10 10 0 6 -4 10 -10 10 -5 0
-10 -4 -10 -10z"/>
<path d="M981 4840 c-18 -11 -23 -56 -7 -69 22 -18 50 -9 54 17 4 25 42 32 42
7 0 -8 5 -15 10 -15 6 0 10 5 10 10 0 6 9 10 19 10 24 0 37 18 23 32 -11 11
-136 18 -151 8z"/>
<path d="M1160 4821 c0 -5 10 -11 23 -13 14 -2 23 -11 25 -24 3 -21 46 -39 65
-27 11 7 -12 33 -29 33 -7 0 -11 6 -8 14 3 9 -5 15 -27 20 -42 8 -49 8 -49 -3z"/>
<path d="M836 4689 c21 -31 40 -55 42 -54 2 2 -4 14 -12 28 -9 13 -15 30 -13
38 2 8 2 10 -1 6 -2 -5 -16 2 -30 15 -19 17 -15 9 14 -33z"/>
<path d="M0 4704 c0 -14 5 -24 11 -22 6 2 10 7 10 11 -1 4 -1 14 -1 22 0 8 -4
15 -10 15 -5 0 -10 -12 -10 -26z"/>
<path d="M45 4709 c-4 -6 -5 -12 -2 -15 2 -3 7 2 10 11 7 17 1 20 -8 4z"/>
<path d="M875 4681 c-3 -5 -1 -12 5 -16 5 -3 10 1 10 9 0 18 -6 21 -15 7z"/>
<path d="M813 4604 c-3 -8 -1 -20 6 -27 8 -8 11 -4 11 16 0 30 -7 35 -17 11z"/>
<path d="M722 4575 c3 -14 1 -25 -3 -25 -21 0 -4 -28 41 -65 26 -22 53 -50 59
-62 14 -31 31 -29 31 3 0 17 -6 28 -20 31 -16 4 -20 14 -20 45 0 34 -2 39 -15
28 -8 -6 -23 -9 -35 -5 -15 5 -20 15 -20 41 0 19 -5 34 -11 34 -7 0 -9 -10 -7
-25z"/>
<path d="M685 4560 c3 -5 8 -10 11 -10 2 0 4 5 4 10 0 6 -5 10 -11 10 -5 0 -7
-4 -4 -10z"/>
<path d="M840 4500 c0 -11 4 -20 9 -20 11 0 22 26 14 34 -12 12 -23 5 -23 -14z"/>
<path d="M630 4301 c0 -6 5 -13 10 -16 6 -3 10 1 10 9 0 9 -4 16 -10 16 -5 0
-10 -4 -10 -9z"/>
<path d="M705 4282 c-8 -21 4 -30 15 -12 8 12 10 11 10 -5 0 -17 2 -17 10 -5
14 22 12 27 -9 33 -12 3 -22 -1 -26 -11z"/>
<path d="M594 4238 c-4 -7 -3 -8 4 -4 7 4 12 1 12 -9 0 -9 5 -13 10 -10 6 3
10 13 10 21 0 17 -26 19 -36 2z"/>
<path d="M654 4224 c4 -9 1 -23 -6 -31 -10 -13 -9 -15 7 -11 13 2 19 10 17 22
-2 11 2 23 10 27 9 6 6 9 -11 9 -17 0 -22 -4 -17 -16z"/>
<path d="M760 4210 c0 -5 5 -10 10 -10 6 0 10 5 10 10 0 6 -4 10 -10 10 -5 0
-10 -4 -10 -10z"/>
<path d="M882 4199 c2 -7 10 -15 17 -17 8 -3 12 1 9 9 -2 7 -10 15 -17 17 -8
3 -12 -1 -9 -9z"/>
<path d="M630 4160 c0 -5 5 -10 11 -10 5 0 7 5 4 10 -3 6 -8 10 -11 10 -2 0
-4 -4 -4 -10z"/>
<path d="M877 4164 c-8 -8 1 -24 14 -24 5 0 9 7 9 15 0 15 -12 20 -23 9z"/>
<path d="M810 4150 c0 -6 7 -10 15 -10 8 0 15 2 15 4 0 2 -7 6 -15 10 -8 3
-15 1 -15 -4z"/>
<path d="M970 4140 c0 -5 5 -10 10 -10 6 0 10 5 10 10 0 6 -4 10 -10 10 -5 0
-10 -4 -10 -10z"/>
<path d="M867 4063 c7 -46 16 -58 38 -49 14 5 15 9 6 20 -7 8 -11 20 -10 28 3
28 -2 38 -20 38 -17 0 -19 -5 -14 -37z"/>
<path d="M735 4080 c-3 -5 -1 -10 4 -10 6 0 11 5 11 10 0 6 -2 10 -4 10 -3 0
-8 -4 -11 -10z"/>
<path d="M796 4081 c-4 -7 -5 -15 -2 -18 9 -9 19 4 14 18 -4 11 -6 11 -12 0z"/>
<path d="M975 4060 c3 -5 8 -10 11 -10 2 0 4 5 4 10 0 6 -5 10 -11 10 -5 0 -7
-4 -4 -10z"/>
<path d="M674 4008 c2 -18 8 -34 14 -36 14 -4 25 15 12 23 -5 3 -10 15 -10 26
0 10 -4 19 -10 19 -5 0 -8 -14 -6 -32z"/>
<path d="M800 4020 c0 -5 5 -10 11 -10 5 0 7 5 4 10 -3 6 -8 10 -11 10 -2 0
-4 -4 -4 -10z"/>
<path d="M727 3978 c-2 -18 -2 -37 1 -43 4 -5 8 -39 10 -75 2 -35 8 -67 14
-71 7 -4 6 -9 -2 -14 -10 -6 -9 -11 4 -21 10 -7 17 -16 17 -21 -1 -4 5 -8 12
-8 6 0 10 7 9 15 -2 8 -5 26 -6 39 -2 14 -12 28 -22 32 -10 4 -14 8 -8 8 6 1
8 15 6 34 -2 17 -4 46 -3 62 1 45 -9 95 -18 95 -5 0 -11 -15 -14 -32z"/>
<path d="M983 3992 c-13 -2 -23 -8 -23 -13 0 -12 22 -52 34 -60 5 -4 6 -20 3
-35 -5 -25 -2 -29 18 -30 31 -2 43 30 21 52 -9 8 -16 25 -17 37 -1 37 -13 52
-36 49z"/>
<path d="M618 3967 c-3 -15 -1 -30 4 -33 15 -10 18 0 9 32 l-8 29 -5 -28z"/>
<path d="M560 3944 c0 -8 5 -12 10 -9 6 3 10 10 10 16 0 5 -4 9 -10 9 -5 0
-10 -7 -10 -16z"/>
<path d="M680 3901 c0 -12 5 -21 10 -21 6 0 10 6 10 14 0 8 -4 18 -10 21 -5 3
-10 -3 -10 -14z"/>
<path d="M802 3901 c2 -7 7 -12 11 -12 12 1 9 15 -3 20 -7 2 -11 -2 -8 -8z"/>
<path d="M625 3890 c-3 -5 -1 -10 4 -10 6 0 11 5 11 10 0 6 -2 10 -4 10 -3 0
-8 -4 -11 -10z"/>
<path d="M1066 3881 c-4 -6 1 -23 12 -39 11 -15 17 -33 14 -41 -3 -10 0 -12
12 -8 10 4 23 7 29 7 7 1 6 5 -3 13 -9 7 -25 27 -37 46 -12 20 -23 29 -27 22z"/>
<path d="M900 3871 c0 -5 9 -7 20 -4 11 3 20 7 20 9 0 2 -9 4 -20 4 -11 0 -20
-4 -20 -9z"/>
<path d="M810 3851 c0 -14 6 -19 20 -18 13 1 19 6 15 15 -3 7 -5 16 -5 18 0 2
-7 4 -15 4 -8 0 -15 -9 -15 -19z"/>
<path d="M630 3838 c0 -16 5 -28 10 -28 13 0 13 20 0 40 -8 12 -10 9 -10 -12z"/>
<path d="M990 3819 c0 -15 26 -39 43 -39 23 0 26 11 9 31 -18 20 -52 26 -52 8z"/>
<path d="M815 3801 c-3 -5 2 -11 10 -15 8 -3 17 -1 20 3 3 5 -2 11 -10 15 -8
3 -17 1 -20 -3z"/>
<path d="M893 3803 c-7 -2 -13 -11 -13 -19 0 -7 6 -11 14 -8 8 3 17 1 21 -5
11 -19 25 -12 25 14 0 25 -16 31 -47 18z"/>
<path d="M700 3790 c0 -5 5 -10 10 -10 6 0 10 5 10 10 0 6 -4 10 -10 10 -5 0
-10 -4 -10 -10z"/>
<path d="M630 3758 c1 -14 24 -48 33 -48 3 0 -1 14 -9 30 -16 32 -24 38 -24
18z"/>
<path d="M1108 3743 c-2 -22 -9 -29 -30 -31 -19 -2 -28 1 -28 11 0 10 -7 13
-20 10 -11 -3 -20 -9 -20 -13 0 -14 25 -27 45 -25 11 2 35 4 53 6 28 3 32 6
27 24 -4 11 -7 26 -7 33 -2 23 -17 12 -20 -15z"/>
<path d="M830 3740 c0 -5 5 -10 10 -10 6 0 10 5 10 10 0 6 -4 10 -10 10 -5 0
-10 -4 -10 -10z"/>
<path d="M700 3730 c0 -5 5 -10 11 -10 5 0 7 5 4 10 -3 6 -8 10 -11 10 -2 0
-4 -4 -4 -10z"/>
<path d="M933 3720 c3 -11 1 -23 -4 -26 -18 -11 -9 -34 14 -34 13 0 24 6 24
13 0 6 3 23 7 37 5 16 4 20 -2 12 -7 -11 -10 -11 -15 2 -9 23 -30 20 -24 -4z"/>
<path d="M779 3708 c-6 -19 -3 -48 4 -45 14 4 20 47 7 47 -6 0 -10 -1 -11 -2z"/>
<path d="M860 3690 c-13 -8 -12 -10 3 -10 9 0 17 5 17 10 0 12 -1 12 -20 0z"/>
<path d="M640 3676 c0 -18 28 -41 38 -31 4 4 1 10 -5 12 -7 3 -13 11 -13 19 0
8 -4 14 -10 14 -5 0 -10 -6 -10 -14z"/>
<path d="M857 3664 c-12 -13 -8 -35 13 -64 11 -16 20 -32 19 -37 -5 -27 1 -35
16 -23 13 11 12 16 -4 39 -11 15 -23 41 -28 60 -4 18 -12 29 -16 25z"/>
<path d="M775 3631 c-3 -6 4 -15 15 -21 17 -9 20 -8 20 10 0 20 -24 28 -35 11z"/>
<path d="M722 3611 c4 -13 18 -16 19 -4 0 4 -5 9 -11 12 -7 2 -11 -2 -8 -8z"/>
<path d="M516 3601 c-4 -7 -5 -15 -2 -18 9 -9 19 4 14 18 -4 11 -6 11 -12 0z"/>
<path d="M667 3598 c-4 -13 14 -48 25 -48 3 0 5 12 4 27 -1 28 -20 42 -29 21z"/>
<path d="M613 3572 c-9 -6 -7 -12 8 -25 11 -10 24 -15 29 -12 15 9 12 25 -4
25 -8 0 -16 4 -18 10 -1 5 -9 6 -15 2z"/>
<path d="M808 3569 c-23 -13 -23 -30 -1 -22 13 5 15 2 9 -12 -4 -11 -2 -22 6
-27 18 -11 28 -10 28 3 0 5 -5 7 -11 4 -7 -5 -8 5 -4 29 7 37 2 42 -27 25z"/>
<path d="M570 3536 c0 -9 5 -16 10 -16 6 0 10 4 10 9 0 6 -4 13 -10 16 -5 3
-10 -1 -10 -9z"/>
<path d="M747 3523 c12 -32 41 -64 48 -53 4 6 -3 20 -15 30 -12 10 -19 24 -15
29 3 6 -1 11 -9 11 -10 0 -13 -6 -9 -17z"/>
<path d="M707 3523 c-4 -3 -7 -27 -7 -52 0 -29 3 -41 9 -33 6 10 16 4 37 -27
29 -40 54 -59 54 -41 0 5 -9 14 -20 20 -11 6 -20 17 -20 25 0 8 -4 15 -8 15
-15 0 -41 57 -35 78 5 22 2 28 -10 15z"/>
<path d="M918 3498 c4 -17 42 -27 42 -10 0 15 -15 29 -31 29 -11 0 -15 -7 -11
-19z"/>
<path d="M856 3474 c-8 -22 17 -47 33 -31 16 16 14 25 -8 36 -15 8 -20 7 -25
-5z"/>
<path d="M973 3463 c-7 -3 -13 -8 -13 -12 0 -11 39 -55 44 -50 8 10 -20 66
-31 62z"/>
<path d="M805 3450 c-4 -6 1 -23 11 -38 12 -19 19 -22 22 -13 3 8 -2 19 -10
25 -8 6 -13 17 -11 24 6 15 -3 16 -12 2z"/>
<path d="M897 3416 c-3 -8 2 -21 12 -30 17 -15 19 -15 24 -1 8 20 -2 45 -18
45 -7 0 -15 -6 -18 -14z"/>
<path d="M621 3385 c0 -35 2 -37 11 -19 7 15 7 28 -1 40 -9 16 -10 12 -10 -21z"/>
<path d="M850 3380 c0 -5 4 -10 9 -10 6 0 13 5 16 10 3 6 -1 10 -9 10 -9 0
-16 -4 -16 -10z"/>
<path d="M560 3374 c0 -12 11 -26 34 -44 18 -14 19 -14 8 6 -13 24 -42 51 -42
38z"/>
<path d="M952 3368 c6 -18 28 -21 28 -4 0 9 -7 16 -16 16 -9 0 -14 -5 -12 -12z"/>
<path d="M466 3362 c-3 -5 1 -9 9 -9 8 0 12 4 9 9 -3 4 -7 8 -9 8 -2 0 -6 -4
-9 -8z"/>
<path d="M871 3356 c-10 -11 -8 -16 9 -21 23 -7 44 5 22 12 -6 3 -10 9 -6 14
9 15 -12 10 -25 -5z"/>
<path d="M506 3337 c-11 -8 -15 -19 -10 -30 12 -31 47 -17 51 21 3 25 -14 29
-41 9z"/>
<path d="M670 3321 c0 -25 6 -27 13 -6 4 8 2 17 -3 20 -6 4 -10 -3 -10 -14z"/>
<path d="M840 3314 c0 -7 27 -34 34 -34 13 0 5 16 -14 28 -11 7 -20 10 -20 6z"/>
<path d="M430 3295 c0 -8 5 -15 10 -15 6 0 10 7 10 15 0 8 -4 15 -10 15 -5 0
-10 -7 -10 -15z"/>
<path d="M710 3290 c0 -5 5 -10 11 -10 5 0 7 5 4 10 -3 6 -8 10 -11 10 -2 0
-4 -4 -4 -10z"/>
<path d="M557 3265 c-4 -8 -3 -16 1 -19 9 -5 32 20 25 28 -10 10 -21 7 -26 -9z"/>
<path d="M840 3277 c0 -3 11 -18 25 -33 14 -15 25 -23 25 -18 0 10 -50 60 -50
51z"/>
<path d="M785 3250 c3 -5 8 -10 11 -10 2 0 4 5 4 10 0 6 -5 10 -11 10 -5 0 -7
-4 -4 -10z"/>
<path d="M0 3231 c0 -20 13 -35 23 -25 7 8 -4 44 -14 44 -5 0 -9 -9 -9 -19z"/>
<path d="M253 3235 c-8 -22 6 -33 17 -15 13 20 12 30 0 30 -6 0 -13 -7 -17
-15z"/>
<path d="M590 3231 c0 -20 17 -37 27 -28 7 8 -7 47 -18 47 -5 0 -9 -9 -9 -19z"/>
<path d="M450 3231 c0 -5 9 -13 20 -16 12 -4 20 -15 20 -28 0 -16 3 -18 12 -9
10 10 7 18 -14 37 -29 27 -38 30 -38 16z"/>
<path d="M100 3204 c0 -8 5 -12 10 -9 6 3 10 10 10 16 0 5 -4 9 -10 9 -5 0
-10 -7 -10 -16z"/>
<path d="M141 3203 c-10 -11 -10 -18 -2 -26 14 -14 23 -4 19 21 -3 18 -5 18
-17 5z"/>
<path d="M525 3210 c3 -5 8 -10 11 -10 2 0 4 5 4 10 0 6 -5 10 -11 10 -5 0 -7
-4 -4 -10z"/>
<path d="M810 3214 c0 -5 9 -16 20 -24 11 -8 20 -20 20 -26 0 -6 8 -18 17 -25
15 -12 16 -12 10 4 -4 11 -2 17 8 17 17 0 19 9 7 28 -5 7 -16 10 -26 6 -10 -4
-25 1 -36 11 -11 10 -20 14 -20 9z"/>
<path d="M83 3196 c7 -18 -13 -46 -32 -46 -6 0 -8 -7 -5 -15 8 -20 14 -19 48
9 l28 24 -23 23 c-17 17 -21 18 -16 5z"/>
<path d="M900 3206 c0 -2 7 -9 15 -16 13 -11 14 -10 9 4 -5 14 -24 23 -24 12z"/>
<path d="M40 3174 c0 -8 5 -12 10 -9 6 3 10 10 10 16 0 5 -4 9 -10 9 -5 0 -10
-7 -10 -16z"/>
<path d="M270 3151 c0 -5 5 -13 10 -16 6 -3 10 -2 10 4 0 5 -4 13 -10 16 -5 3
-10 2 -10 -4z"/>
<path d="M550 3140 c0 -5 5 -10 10 -10 6 0 10 5 10 10 0 6 -4 10 -10 10 -5 0
-10 -4 -10 -10z"/>
<path d="M202 3117 c-25 -26 -28 -52 -9 -60 10 -4 13 2 9 21 -4 20 -2 24 10
19 10 -3 19 3 27 19 14 32 -7 33 -37 1z"/>
<path d="M505 3130 c3 -5 10 -10 16 -10 5 0 9 5 9 10 0 6 -7 10 -16 10 -8 0
-12 -4 -9 -10z"/>
<path d="M301 3116 c-7 -8 -9 -21 -5 -27 5 -9 10 -5 16 11 10 28 5 36 -11 16z"/>
<path d="M10 3100 c0 -11 2 -20 5 -20 2 0 9 9 15 20 9 16 8 20 -5 20 -8 0 -15
-9 -15 -20z"/>
<path d="M406 3091 c-5 -7 -3 -18 3 -24 14 -14 20 -6 11 17 -5 15 -9 16 -14 7z"/>
<path d="M538 3075 c2 -14 11 -25 18 -25 12 0 11 5 -2 25 -9 14 -17 25 -19 25
-1 0 0 -11 3 -25z"/>
<path d="M595 3090 c3 -5 8 -10 11 -10 2 0 4 5 4 10 0 6 -5 10 -11 10 -5 0 -7
-4 -4 -10z"/>
<path d="M231 3081 c-7 -5 -12 -14 -10 -20 3 -6 9 -7 18 -2 7 5 12 14 10 20
-3 6 -9 7 -18 2z"/>
<path d="M2 3050 c0 -14 2 -19 5 -12 2 6 2 18 0 25 -3 6 -5 1 -5 -13z"/>
<path d="M646 3038 c16 -18 30 -35 32 -37 1 -2 4 -2 7 1 6 6 -52 68 -63 68 -3
0 7 -15 24 -32z"/>
<path d="M130 3049 c0 -5 5 -7 10 -4 6 3 10 8 10 11 0 2 -4 4 -10 4 -5 0 -10
-5 -10 -11z"/>
<path d="M314 3045 c-17 -13 -17 -14 -2 -15 9 0 20 5 23 11 11 17 0 20 -21 4z"/>
<path d="M96 3033 c-6 -14 -9 -15 -15 -4 -6 9 -14 10 -22 5 -8 -5 -20 -9 -28
-11 -23 -3 -28 -21 -30 -100 -1 -48 2 -72 9 -68 5 3 10 15 10 26 0 11 4 18 9
14 16 -9 24 15 11 30 -10 12 -9 15 3 15 10 0 14 9 13 25 0 14 -7 25 -15 25
-11 0 -11 3 -1 14 6 8 17 13 25 10 13 -5 30 -50 26 -67 -1 -5 3 -6 8 -3 5 3
11 17 13 30 4 17 1 23 -9 19 -7 -3 -13 0 -13 6 0 6 4 11 9 11 5 0 11 9 14 20
6 24 -8 27 -17 3z"/>
<path d="M170 3035 c-10 -12 -10 -15 4 -15 9 0 16 7 16 15 0 8 -2 15 -4 15 -2
0 -9 -7 -16 -15z"/>
<path d="M590 3040 c0 -5 5 -10 11 -10 5 0 7 5 4 10 -3 6 -8 10 -11 10 -2 0
-4 -4 -4 -10z"/>
<path d="M357 3026 c-3 -8 -2 -18 3 -21 13 -8 24 15 12 27 -6 6 -11 4 -15 -6z"/>
<path d="M234 3012 c8 -25 -3 -54 -17 -45 -6 4 -8 0 -4 -9 9 -26 -14 -40 -35
-21 -25 22 -38 7 -42 -46 -3 -32 0 -41 10 -37 17 7 18 -6 2 -23 -11 -11 -10
-12 1 -6 11 6 13 4 8 -7 -3 -9 3 -24 14 -34 18 -17 25 -10 20 19 -1 5 4 7 11
5 7 -3 13 -13 13 -24 0 -10 4 -25 8 -31 5 -7 5 -19 2 -25 -4 -7 1 -4 9 6 18
23 20 36 6 36 -5 0 -10 5 -10 11 0 5 6 7 13 4 6 -4 3 1 -7 9 -15 12 -17 19 -9
27 8 8 14 5 23 -10 6 -12 8 -26 5 -31 -3 -6 -1 -10 6 -10 15 0 38 30 39 52 0
9 6 18 13 21 7 3 5 8 -8 13 -11 4 -26 14 -34 22 -12 12 -11 17 8 35 l21 21 22
-22 c13 -13 17 -22 10 -22 -7 0 -10 -4 -7 -10 3 -5 11 -10 16 -10 6 0 8 4 4 9
-3 5 -1 12 5 16 5 3 10 15 10 26 0 10 7 19 15 19 8 0 15 4 15 9 0 5 9 13 20
16 11 4 18 11 14 16 -4 6 -10 6 -18 0 -7 -6 -16 -8 -19 -4 -4 3 -7 0 -7 -9 0
-8 -11 -20 -25 -26 -20 -9 -25 -9 -25 1 0 8 -12 13 -30 13 -17 0 -29 -4 -28
-10 1 -6 -15 -28 -35 -48 -30 -29 -39 -34 -44 -22 -3 9 3 21 16 30 11 8 21 22
21 30 0 8 4 14 8 14 8 0 46 60 40 64 -1 2 -14 7 -26 11 -21 6 -23 4 -18 -13z
m-66 -103 c-3 -8 -7 -3 -11 10 -4 17 -3 21 5 13 5 -5 8 -16 6 -23z m62 -59 c0
-5 -5 -10 -11 -10 -5 0 -7 5 -4 10 3 6 8 10 11 10 2 0 4 -4 4 -10z m51 -9 c-9
-6 -10 -11 -2 -15 6 -4 11 -13 11 -19 0 -7 -7 -3 -15 7 -15 20 -12 36 8 36 8
0 8 -3 -2 -9z"/>
<path d="M166 2995 c-3 -8 -1 -15 4 -15 6 0 10 7 10 15 0 8 -2 15 -4 15 -2 0
-6 -7 -10 -15z"/>
<path d="M280 2980 c0 -5 7 -10 16 -10 8 0 12 5 9 10 -3 6 -10 10 -16 10 -5 0
-9 -4 -9 -10z"/>
<path d="M466 2922 c-4 -12 -4 -27 1 -34 4 -7 8 -16 8 -20 0 -18 15 -17 24 1
8 14 8 22 0 26 -6 4 -14 17 -18 28 l-8 22 -7 -23z"/>
<path d="M70 2906 c0 -16 -7 -27 -20 -31 -11 -3 -20 -12 -20 -19 0 -8 -7 -19
-15 -26 -13 -11 -13 -15 -3 -21 14 -9 12 -68 -3 -83 -15 -17 -10 -36 10 -36
11 0 23 -4 26 -10 3 -5 15 -10 26 -10 17 0 18 3 9 20 -8 16 -8 20 2 18 9 -2
12 6 10 22 -3 24 -3 24 11 5 8 -10 13 -25 10 -32 -3 -7 0 -13 6 -13 6 0 11 -7
11 -15 0 -22 14 -18 49 12 29 25 45 73 20 57 -6 -3 -26 10 -45 29 -18 20 -36
32 -39 27 -8 -13 -63 -39 -69 -32 -10 10 -6 23 5 17 12 -8 61 34 53 46 -3 5 0
9 7 9 8 0 8 4 1 13 -7 8 -7 18 -2 27 15 24 12 32 -10 25 -15 -5 -18 -3 -14 9
3 9 1 16 -5 16 -6 0 -11 -11 -11 -24z m10 -98 c0 -4 -7 -8 -15 -8 -8 0 -15 4
-15 8 0 5 7 9 15 9 8 0 15 -4 15 -9z m90 -98 c-1 -12 -4 -11 -15 4 -8 10 -12
23 -8 29 7 11 23 -12 23 -33z"/>
<path d="M681 2904 c0 -11 3 -14 6 -6 3 7 2 16 -1 19 -3 4 -6 -2 -5 -13z"/>
<path d="M430 2880 c-8 -5 -22 -7 -30 -5 -12 4 -15 -5 -15 -40 0 -30 4 -45 12
-45 7 0 13 7 13 15 0 8 5 15 11 15 6 0 8 8 5 18 -5 13 0 22 16 29 12 5 17 12
12 16 -6 3 -16 2 -24 -3z"/>
<path d="M753 2868 c-2 -18 0 -20 7 -8 12 18 13 30 2 30 -4 0 -9 -10 -9 -22z"/>
<path d="M720 2860 c0 -5 5 -10 10 -10 6 0 10 5 10 10 0 6 -4 10 -10 10 -5 0
-10 -4 -10 -10z"/>
<path d="M620 2850 c-9 -6 -10 -10 -3 -10 6 0 15 5 18 10 8 12 4 12 -15 0z"/>
<path d="M486 2825 c-30 -28 -33 -40 -11 -49 11 -4 15 0 13 12 -2 10 6 21 20
27 12 5 22 15 22 22 0 20 -14 16 -44 -12z"/>
<path d="M755 2830 c4 -6 11 -8 16 -5 14 9 11 15 -7 15 -8 0 -12 -5 -9 -10z"/>
<path d="M321 2805 c-27 -27 -22 -46 6 -24 14 10 16 10 6 0 -12 -14 -7 -41 8
-41 5 0 9 6 9 14 0 8 9 16 20 18 20 3 19 4 -3 30 l-22 26 -24 -23z"/>
<path d="M545 2810 c4 -6 11 -8 16 -5 14 9 11 15 -7 15 -8 0 -12 -5 -9 -10z"/>
<path d="M570 2791 c0 -5 7 -14 15 -21 13 -10 18 -11 28 -1 9 10 8 11 -7 5
-16 -6 -18 -4 -13 9 4 11 1 17 -8 17 -8 0 -15 -4 -15 -9z"/>
<path d="M530 2770 c0 -5 -6 -10 -14 -10 -9 0 -14 -9 -13 -20 1 -23 37 -28 37
-6 0 8 5 16 12 18 6 2 8 10 4 16 -9 15 -26 16 -26 2z"/>
<path d="M707 2763 c-4 -3 -7 -11 -7 -17 0 -6 5 -5 12 2 6 6 9 14 7 17 -3 3
-9 2 -12 -2z"/>
<path d="M627 2743 c6 -15 4 -16 -8 -6 -12 10 -18 10 -27 1 -18 -18 -14 -38 6
-38 23 0 56 35 47 49 -10 18 -25 12 -18 -6z"/>
<path d="M442 2710 c-29 -26 -32 -32 -21 -52 l12 -22 8 22 c12 32 22 27 17 -8
-3 -23 -1 -30 12 -30 9 0 21 5 27 11 8 8 13 5 18 -11 4 -14 2 -25 -5 -30 -8
-5 -8 -10 -2 -14 5 -3 15 1 22 9 12 14 6 39 -17 74 -1 2 -9 -2 -17 -8 -10 -8
-16 -9 -21 -1 -3 5 -1 10 5 10 8 0 8 6 0 20 -8 14 -8 26 0 40 15 29 0 25 -38
-10z"/>
<path d="M640 2694 c0 -8 5 -12 10 -9 6 3 10 10 10 16 0 5 -4 9 -10 9 -5 0
-10 -7 -10 -16z"/>
<path d="M543 2650 c6 -16 17 -32 25 -35 7 -2 11 -1 10 3 -21 43 -33 62 -39
62 -4 0 -2 -13 4 -30z"/>
<path d="M667 2673 c-4 -3 -7 -13 -7 -21 0 -12 3 -12 15 -2 8 7 15 16 15 21 0
11 -14 12 -23 2z"/>
<path d="M600 2649 c0 -16 49 -79 61 -79 14 0 11 17 -6 34 -8 8 -15 18 -15 23
0 4 -9 14 -20 21 -15 9 -20 9 -20 1z"/>
<path d="M690 2645 c0 -8 -5 -15 -12 -15 -6 0 -8 -3 -5 -6 8 -8 37 14 37 27 0
5 -4 9 -10 9 -5 0 -10 -7 -10 -15z"/>
<path d="M395 2619 c3 -19 13 -42 22 -51 10 -11 12 -18 5 -18 -7 0 -12 5 -12
11 0 5 -5 7 -10 4 -6 -4 3 -20 21 -37 17 -17 37 -42 46 -55 15 -23 53 -32 53
-13 0 6 -5 9 -12 8 -15 -4 -19 54 -4 65 7 5 5 12 -6 21 -10 7 -18 18 -18 24 0
12 -28 24 -40 17 -10 -6 -24 14 -25 34 0 8 -6 16 -13 19 -9 3 -11 -5 -7 -29z
m91 -78 c-10 -16 -46 -20 -46 -5 0 8 10 14 26 14 14 0 23 -4 20 -9z"/>
<path d="M719 2598 c12 -32 31 -34 31 -4 0 19 -5 26 -20 26 -16 0 -18 -4 -11
-22z"/>
<path d="M550 2589 c0 -5 5 -7 10 -4 6 3 10 8 10 11 0 2 -4 4 -10 4 -5 0 -10
-5 -10 -11z"/>
<path d="M590 2590 c0 -5 5 -10 10 -10 6 0 10 5 10 10 0 6 -4 10 -10 10 -5 0
-10 -4 -10 -10z"/>
<path d="M553 2558 c-24 -31 -22 -45 8 -45 29 0 40 21 17 30 -10 4 -10 6 0 6
17 1 15 21 -2 21 -7 0 -18 -6 -23 -12z"/>
<path d="M696 2544 c-9 -8 -13 -20 -10 -26 4 -6 10 -5 15 3 7 11 11 10 23 -6
9 -11 16 -15 16 -9 0 6 -7 17 -15 24 -8 7 -12 16 -9 21 9 14 -3 10 -20 -7z"/>
<path d="M639 2522 c-31 -31 -59 -87 -58 -112 2 -22 2 -22 6 -4 2 12 13 30 24
40 10 9 19 24 19 33 0 14 2 14 10 1 8 -12 10 -11 10 7 0 12 5 25 10 28 12 7
13 25 3 24 -5 0 -15 -8 -24 -17z"/>
<path d="M670 2506 c0 -2 7 -9 15 -16 9 -7 15 -8 15 -2 0 5 -7 12 -15 16 -8 3
-15 4 -15 2z"/>
<path d="M730 2461 c0 -5 5 -13 10 -16 6 -3 10 -2 10 4 0 5 -4 13 -10 16 -5 3
-10 2 -10 -4z"/>
<path d="M698 2411 c-4 -25 -1 -29 15 -25 28 5 30 9 15 33 -17 28 -25 26 -30
-8z"/>
<path d="M450 2415 c0 -9 9 -19 21 -23 20 -8 19 -8 -5 -22 -14 -7 -26 -17 -26
-22 0 -12 52 1 69 17 11 11 10 17 -12 39 -29 29 -47 33 -47 11z"/>
<path d="M662 2410 c0 -14 2 -19 5 -12 2 6 2 18 0 25 -3 6 -5 1 -5 -13z"/>
<path d="M430 2401 c0 -10 19 -25 25 -20 1 2 -3 10 -11 17 -8 7 -14 8 -14 3z"/>
<path d="M752 2383 c-10 -17 -9 -22 5 -27 22 -9 28 0 16 26 l-10 23 -11 -22z"/>
<path d="M670 2366 c0 -9 5 -16 10 -16 6 0 10 4 10 9 0 6 -4 13 -10 16 -5 3
-10 -1 -10 -9z"/>
<path d="M716 2357 c3 -10 9 -15 12 -12 3 3 0 11 -7 18 -10 9 -11 8 -5 -6z"/>
<path d="M623 2345 c-8 -22 6 -33 17 -15 13 20 12 30 0 30 -6 0 -13 -7 -17
-15z"/>
<path d="M678 2333 c6 -2 12 -11 12 -19 0 -15 12 -19 23 -7 10 9 -13 33 -32
32 -10 0 -11 -2 -3 -6z"/>
<path d="M495 2320 c3 -5 8 -10 11 -10 2 0 4 5 4 10 0 6 -5 10 -11 10 -5 0 -7
-4 -4 -10z"/>
<path d="M390 2296 c0 -2 7 -9 15 -16 13 -11 14 -10 9 4 -5 14 -24 23 -24 12z"/>
</g>
</svg>
